<?xml version="1.0" encoding="UTF-8" standalone="no"?>
<!-- Generator: Adobe Illustrator 16.0.0, SVG Export Plug-In . SVG Version: 6.00 Build 0)  -->

<svg
   xmlns:dc="http://purl.org/dc/elements/1.1/"
   xmlns:cc="http://creativecommons.org/ns#"
   xmlns:rdf="http://www.w3.org/1999/02/22-rdf-syntax-ns#"
   xmlns:svg="http://www.w3.org/2000/svg"
   xmlns="http://www.w3.org/2000/svg"
   xmlns:xlink="http://www.w3.org/1999/xlink"
   xmlns:sodipodi="http://sodipodi.sourceforge.net/DTD/sodipodi-0.dtd"
   xmlns:inkscape="http://www.inkscape.org/namespaces/inkscape"
   version="1.1"
   x="0px"
   y="0px"
   width="345"
   height="345"
   viewBox="0 0 345 345"
   enable-background="new 0 0 625 625"
   xml:space="preserve"
   id="svg2"
   inkscape:version="0.48.4 r9939"
   sodipodi:docname="hyperkitty-favicon.svg"
   inkscape:export-filename="/home/gauret/fedora/hk/hyperkitty/hyperkitty/static/img/favicon128.png"
   inkscape:export-xdpi="33.391304"
   inkscape:export-ydpi="33.391304"><metadata
     id="metadata431"><rdf:RDF><cc:Work
         rdf:about=""><dc:format>image/svg+xml</dc:format><dc:type
           rdf:resource="http://purl.org/dc/dcmitype/StillImage" /><dc:title></dc:title></cc:Work></rdf:RDF></metadata><defs
     id="defs429"><linearGradient
       y2="276.68729"
       x2="466.64401"
       y1="258.147"
       x1="171.5444"
       gradientUnits="userSpaceOnUse"
       id="SVGID_19_"><stop
         id="stop305"
         style="stop-color:#47488B"
         offset="0" /><stop
         id="stop307"
         style="stop-color:#6191C4"
         offset="0.2619" /><stop
         id="stop309"
         style="stop-color:#3E3A5F"
         offset="1" /></linearGradient><linearGradient
       y2="181.50951"
       x2="476.1861"
       y1="215.4995"
       x1="426.74609"
       gradientUnits="userSpaceOnUse"
       id="SVGID_20_"><stop
         id="stop314"
         style="stop-color:#6171C4"
         offset="0" /><stop
         id="stop316"
         style="stop-color:#4E5388"
         offset="0.4709" /><stop
         id="stop318"
         style="stop-color:#424163"
         offset="0.8172" /><stop
         id="stop320"
         style="stop-color:#3E3A55"
         offset="1" /></linearGradient><linearGradient
       y2="157.5553"
       x2="176.9008"
       y1="200.81641"
       x1="222.47951"
       gradientUnits="userSpaceOnUse"
       id="SVGID_21_"><stop
         id="stop325"
         style="stop-color:#6171C4"
         offset="0" /><stop
         id="stop327"
         style="stop-color:#4E5388"
         offset="0.4709" /><stop
         id="stop329"
         style="stop-color:#424163"
         offset="0.8172" /><stop
         id="stop331"
         style="stop-color:#3E3A55"
         offset="1" /></linearGradient><linearGradient
       inkscape:collect="always"
       xlink:href="#SVGID_21_"
       id="linearGradient3474"
       gradientUnits="userSpaceOnUse"
       x1="222.47951"
       y1="200.81641"
       x2="176.9008"
       y2="157.5553"
       gradientTransform="translate(-144.93793,-58.472719)" /><linearGradient
       inkscape:collect="always"
       xlink:href="#SVGID_20_"
       id="linearGradient3477"
       gradientUnits="userSpaceOnUse"
       x1="426.74609"
       y1="215.4995"
       x2="476.1861"
       y2="181.50951"
       gradientTransform="translate(-144.93793,-58.472719)" /><linearGradient
       inkscape:collect="always"
       xlink:href="#SVGID_19_"
       id="linearGradient3480"
       gradientUnits="userSpaceOnUse"
       x1="171.5444"
       y1="258.147"
       x2="466.64401"
       y2="276.68729"
       gradientTransform="translate(-144.93793,-58.472719)" /><linearGradient
       inkscape:collect="always"
       xlink:href="#SVGID_17_"
       id="linearGradient3546"
       gradientUnits="userSpaceOnUse"
       x1="403.164"
       y1="295.92529"
       x2="457.987"
       y2="390.5098" /><linearGradient
       inkscape:collect="always"
       xlink:href="#SVGID_18_"
       id="linearGradient3548"
       gradientUnits="userSpaceOnUse"
       x1="232.8261"
       y1="292.45999"
       x2="144.26759"
       y2="358.12579" /><linearGradient
       inkscape:collect="always"
       xlink:href="#SVGID_17_"
       id="linearGradient3603"
       gradientUnits="userSpaceOnUse"
       x1="403.164"
       y1="295.92529"
       x2="457.987"
       y2="390.5098" /><linearGradient
       inkscape:collect="always"
       xlink:href="#SVGID_18_"
       id="linearGradient3605"
       gradientUnits="userSpaceOnUse"
       x1="232.8261"
       y1="292.45999"
       x2="144.26759"
       y2="358.12579" /><linearGradient
       inkscape:collect="always"
       xlink:href="#SVGID_19_"
       id="linearGradient3607"
       gradientUnits="userSpaceOnUse"
       gradientTransform="translate(-144.93793,-58.472719)"
       x1="171.5444"
       y1="258.147"
       x2="466.64401"
       y2="276.68729" /><linearGradient
       inkscape:collect="always"
       xlink:href="#SVGID_20_"
       id="linearGradient3609"
       gradientUnits="userSpaceOnUse"
       gradientTransform="translate(-144.93793,-58.472719)"
       x1="426.74609"
       y1="215.4995"
       x2="476.1861"
       y2="181.50951" /><linearGradient
       inkscape:collect="always"
       xlink:href="#SVGID_21_"
       id="linearGradient3611"
       gradientUnits="userSpaceOnUse"
       gradientTransform="translate(-144.93793,-58.472719)"
       x1="222.47951"
       y1="200.81641"
       x2="176.9008"
       y2="157.5553" /></defs><sodipodi:namedview
     pagecolor="#ffffff"
     bordercolor="#666666"
     borderopacity="1"
     objecttolerance="10"
     gridtolerance="10"
     guidetolerance="10"
     inkscape:pageopacity="0"
     inkscape:pageshadow="2"
     inkscape:window-width="1920"
     inkscape:window-height="1028"
     id="namedview427"
     showgrid="false"
     fit-margin-top="0"
     fit-margin-left="0"
     fit-margin-right="0"
     fit-margin-bottom="0"
     inkscape:zoom="1.0680141"
     inkscape:cx="193.20682"
     inkscape:cy="120.108"
     inkscape:window-x="-2"
     inkscape:window-y="-3"
     inkscape:window-maximized="1"
     inkscape:current-layer="svg2" /><g
     id="g203"
     sodipodi:docname="hyperkitty-logo.svg"
     inkscape:version="0.48.3.1 r9886"
     inkscape:export-filename="/home/gauret/fedora/hk/hyperkitty/hyperkitty/static/img/logo.png"
     inkscape:export-xdpi="32.756775"
     inkscape:export-ydpi="32.756775"
     transform="translate(-144.93793,-58.472719)"><sodipodi:namedview
       inkscape:window-x="-2"
       inkscape:pageopacity="0"
       inkscape:window-width="1920"
       inkscape:current-layer="svg2"
       inkscape:window-maximized="1"
       inkscape:window-y="-3"
       inkscape:window-height="1028"
       inkscape:pageshadow="2"
       inkscape:cy="275.34502"
       bordercolor="#666666"
       pagecolor="#ffffff"
       guidetolerance="10"
       showgrid="false"
       inkscape:cx="182.19848"
       inkscape:zoom="1.0680141"
       objecttolerance="10"
       borderopacity="1"
       gridtolerance="10"
       id="namedview397" /><g
       id="g354" /></g><g
     id="Calque_3"
     transform="translate(-144.93793,-58.472719)" /><g
     id="Calque_4"
     transform="translate(-144.93793,-58.472719)" /><g
     id="g3550"
     transform="translate(0.65854496,-52.338329)"><path
       stroke-miterlimit="10"
       d="m 239.79507,139.44128 c 0,0 183.721,-35.852 53.491,51.599 -51.145,-34.1 -53.491,-51.599 -53.491,-51.599 z"
       id="path210"
       inkscape:connector-curvature="0"
       style="fill:#ffffff;stroke:#000000;stroke-width:3;stroke-linecap:round;stroke-miterlimit:10" /><g
       transform="translate(-144.93793,-58.472719)"
       id="g212"><path
         stroke-miterlimit="10"
         d="m 384.06,294.678 c 0,0 24.608,-22.085 52.606,-7.317 34.288,18.542 40.776,99.978 16.171,110.038 -15.424,7.359 -36.463,-2.206 -43.977,-15.655 -14.627,-20.762 0.089,-56.451 -6.121,-59.6 -6.211,-3.146 -25.923,0.285 -33.624,-7.247 -7.702,-7.532 14.945,-20.219 14.945,-20.219 z"
         id="path214"
         inkscape:connector-curvature="0"
         style="fill:#ffffff;stroke:#000000;stroke-width:3;stroke-linecap:round;stroke-miterlimit:10" /><g
         id="g216"><path
           d="m 421.616,394.622 1.5,-15.759 1.5,15.759 c 0.079,0.828 -0.529,1.563 -1.357,1.643 -0.828,0.08 -1.563,-0.528 -1.643,-1.357 -0.009,-0.095 -0.008,-0.195 0,-0.286 z"
           id="path218"
           inkscape:connector-curvature="0" /></g><g
         id="g220"><path
           d="m 439.476,398.382 -1.264,-15.193 4.215,14.652 c 0.229,0.8 -0.232,1.635 -1.032,1.865 -0.8,0.229 -1.635,-0.232 -1.865,-1.032 -0.028,-0.095 -0.046,-0.197 -0.054,-0.292 z"
           id="path222"
           inkscape:connector-curvature="0" /></g><g
         id="g224"><path
           d="m 456.003,393.394 -5.707,-14.53 8.381,13.171 c 0.447,0.702 0.24,1.634 -0.462,2.08 -0.702,0.447 -1.634,0.24 -2.081,-0.462 -0.051,-0.082 -0.097,-0.174 -0.131,-0.259 z"
           id="path226"
           inkscape:connector-curvature="0" /></g><linearGradient
         id="SVGID_17_"
         gradientUnits="userSpaceOnUse"
         x1="403.164"
         y1="295.92529"
         x2="457.987"
         y2="390.5098"><stop
           offset="0"
           style="stop-color:#6171C4"
           id="stop229" /><stop
           offset="0.4709"
           style="stop-color:#4E5388"
           id="stop231" /><stop
           offset="0.8172"
           style="stop-color:#424163"
           id="stop233" /><stop
           offset="1"
           style="stop-color:#3E3A55"
           id="stop235" /></linearGradient><path
         d="m 470.426,351.421 c -0.461,-4.935 -1.225,-9.822 -2.271,-14.643 -1.032,-4.825 -2.394,-9.574 -4.053,-14.215 -1.68,-4.634 -3.634,-9.173 -6.006,-13.5 -0.029,-0.054 -0.061,-0.104 -0.091,-0.157 -5.189,-10.227 -12.065,-18.585 -20.496,-23.144 -6.663,-3.514 -13.699,-5.296 -20.918,-5.296 -9.413,0 -17.566,2.973 -23.505,6.063 0.165,0.439 0.332,0.877 0.499,1.319 0.214,0.729 0.4,1.48 0.593,2.226 5.595,-2.993 13.441,-5.993 22.413,-5.993 6.624,0 13.095,1.641 19.214,4.869 8.312,4.495 15.02,13.005 19.972,23.412 3.521,8.092 5.774,16.707 7.186,25.398 0.747,4.663 1.218,9.366 1.398,14.065 0.219,4.696 0.167,9.396 -0.256,14.03 -0.424,4.63 -1.192,9.208 -2.449,13.538 -1.286,4.287 -3.102,8.428 -5.751,11.396 -1.312,1.49 -2.846,2.587 -4.455,3.278 l -1.678,0.678 -0.839,0.342 -0.414,0.161 -0.349,0.085 -1.39,0.355 -0.695,0.188 -0.782,0.11 c -4.148,0.683 -8.559,0.388 -12.803,-0.75 -4.259,-1.096 -8.375,-2.996 -12.011,-5.54 -3.639,-2.537 -6.815,-5.724 -9.092,-9.371 l -0.155,-0.248 -0.007,-0.01 c -2.816,-3.754 -4.657,-8.312 -5.69,-13.134 -1.068,-4.824 -1.414,-9.893 -1.379,-14.989 0.009,-1.593 0.064,-3.192 0.14,-4.796 0.268,-3.337 0.634,-6.553 0.978,-9.514 1.106,-9.56 1.775,-15.328 -1.729,-17.105 -2.737,-1.387 -7.253,-1.627 -12.483,-1.904 -2.955,-0.158 -6.202,-0.334 -9.305,-0.757 -0.556,0.528 -1.11,1.058 -1.68,1.569 -0.575,0.526 -1.165,1.035 -1.753,1.545 4.022,0.796 8.42,1.032 12.546,1.252 4.619,0.244 8.983,0.477 11.041,1.519 1.256,0.638 0.327,8.668 -0.229,13.466 -0.361,3.117 -0.747,6.506 -1.022,10.025 -0.166,1.509 -0.313,3.022 -0.424,4.545 -0.382,5.273 -0.393,10.655 0.434,16.055 0.847,5.373 2.632,10.806 5.806,15.57 l -0.161,-0.255 c 2.545,4.733 6.242,8.617 10.394,11.75 4.167,3.129 8.861,5.547 13.913,7.01 5.042,1.435 10.467,2.018 15.854,1.139 l 1.009,-0.146 1.058,-0.267 2.11,-0.568 0.526,-0.147 0.428,-0.166 0.842,-0.335 1.681,-0.667 c 2.86,-1.162 5.27,-3.046 7.14,-5.185 3.765,-4.312 5.754,-9.331 7.14,-14.268 1.372,-4.965 2.005,-9.991 2.277,-14.983 0.271,-4.994 0.153,-9.971 -0.271,-14.905 z"
         id="path237"
         style="fill:url(#linearGradient3603)"
         inkscape:connector-curvature="0" /></g><path
       stroke-miterlimit="10"
       d="m 115.38907,125.98928 c 0,0 -177.355001,-59.868004 -59.854001,44.06 55.210001,-27.024 59.854001,-44.06 59.854001,-44.06 z"
       id="path239"
       inkscape:connector-curvature="0"
       style="fill:#ffffff;stroke:#000000;stroke-width:3;stroke-linecap:round;stroke-miterlimit:10" /><g
       transform="translate(-144.93793,-58.472719)"
       id="g241"><path
         stroke-miterlimit="10"
         d="m 245.32,286.364 c 0,0 -19.58,-26.644 -50.002,-17.903 -37.352,11.151 -60.33,89.548 -38.297,104.419 13.597,10.353 36.145,5.284 46.246,-6.347 18.559,-17.339 11.44,-55.281 18.162,-57.095 6.722,-1.812 25.318,5.57 34.394,-0.229 9.076,-5.8 -10.503,-22.845 -10.503,-22.845 z"
         id="path243"
         inkscape:connector-curvature="0"
         style="fill:#ffffff;stroke:#000000;stroke-width:3;stroke-linecap:round;stroke-miterlimit:10" /><g
         id="g245"><path
           d="m 189.276,374.528 1.5,-15.758 1.5,15.758 c 0.079,0.828 -0.529,1.563 -1.357,1.643 -0.828,0.079 -1.563,-0.528 -1.643,-1.357 -0.009,-0.094 -0.008,-0.195 0,-0.286 z"
           id="path247"
           inkscape:connector-curvature="0" /></g><g
         id="g249"><path
           d="m 171.464,376.544 4.215,-14.652 -1.264,15.193 c -0.069,0.83 -0.798,1.446 -1.627,1.378 -0.83,-0.069 -1.446,-0.798 -1.377,-1.628 0.008,-0.098 0.028,-0.2 0.053,-0.291 z"
           id="path251"
           inkscape:connector-curvature="0" /></g><g
         id="g253"><path
           d="m 155.214,370.735 8.38,-13.169 -5.707,14.528 c -0.304,0.775 -1.179,1.156 -1.954,0.853 -0.774,-0.305 -1.156,-1.18 -0.852,-1.954 0.037,-0.089 0.084,-0.18 0.133,-0.258 z"
           id="path255"
           inkscape:connector-curvature="0" /></g><linearGradient
         id="SVGID_18_"
         gradientUnits="userSpaceOnUse"
         x1="232.8261"
         y1="292.45999"
         x2="144.26759"
         y2="358.12579"><stop
           offset="0"
           style="stop-color:#6171C4"
           id="stop258" /><stop
           offset="0.4709"
           style="stop-color:#4E5388"
           id="stop260" /><stop
           offset="0.8172"
           style="stop-color:#424163"
           id="stop262" /><stop
           offset="1"
           style="stop-color:#3E3A55"
           id="stop264" /></linearGradient><path
         d="m 245.944,309.668 0,0 c -3.979,-0.001 -8.44,-0.687 -12.375,-1.291 -5.169,-0.793 -9.881,-1.417 -12.611,-0.684 -3.792,1.023 -4.315,6.808 -5.184,16.392 -0.268,2.96 -0.565,6.175 -0.981,9.486 -0.256,1.593 -0.528,3.18 -0.847,4.753 -1.005,4.994 -2.38,9.886 -4.41,14.39 -1.996,4.509 -4.727,8.597 -8.252,11.695 l -0.009,0.01 -0.201,0.209 c -2.976,3.106 -6.736,5.577 -10.815,7.317 -4.08,1.747 -8.499,2.769 -12.889,2.972 -4.388,0.248 -8.766,-0.364 -12.687,-1.881 l -0.744,-0.266 -0.642,-0.327 -1.287,-0.633 -0.325,-0.151 -0.372,-0.247 -0.752,-0.502 -1.504,-1.009 c -1.432,-1.003 -2.713,-2.391 -3.689,-4.116 -1.988,-3.447 -2.921,-7.873 -3.306,-12.332 -0.345,-4.496 -0.162,-9.134 0.368,-13.754 0.531,-4.621 1.441,-9.233 2.614,-13.785 1.136,-4.563 2.558,-9.072 4.24,-13.486 3.162,-8.233 7.136,-16.22 12.248,-23.432 6.963,-9.155 15.251,-16.1 24.285,-18.797 3.904,-1.122 7.838,-1.691 11.692,-1.691 14.355,0 25.316,7.878 31.291,13.469 0.064,-0.272 0.119,-0.55 0.187,-0.821 0.35,-1.005 0.7,-2.007 1.048,-3.006 0.001,-0.003 0.002,-0.005 0.004,-0.008 -6.605,-5.886 -17.804,-13.248 -32.529,-13.248 -4.192,0 -8.461,0.616 -12.708,1.836 -9.186,2.743 -17.626,9.53 -24.795,18.492 -0.032,0.038 -0.066,0.073 -0.099,0.111 -3.205,3.751 -6.045,7.796 -8.635,11.988 -2.572,4.205 -4.874,8.576 -6.869,13.087 -2.009,4.506 -3.754,9.137 -5.213,13.871 -1.421,4.744 -2.553,9.592 -3.307,14.539 -0.753,4.941 -1.161,9.991 -0.83,15.134 0.349,5.115 1.272,10.435 4.076,15.422 1.394,2.477 3.369,4.812 5.93,6.533 l 1.511,0.997 0.754,0.499 0.385,0.252 0.484,0.251 1.951,0.987 0.981,0.476 0.958,0.349 c 5.095,1.961 10.523,2.499 15.752,2.123 5.245,-0.401 10.333,-1.811 15.052,-4.021 4.703,-2.22 9.115,-5.266 12.574,-9.381 l -0.21,0.22 c 4.08,-4.019 6.937,-8.972 8.862,-14.06 1.91,-5.116 3,-10.388 3.702,-15.627 0.204,-1.511 0.367,-3.019 0.512,-4.525 0.45,-3.509 0.764,-6.907 1.047,-10.036 0.436,-4.809 1.165,-12.859 2.525,-13.227 0.572,-0.154 1.336,-0.232 2.275,-0.232 2.35,0 5.504,0.484 8.845,0.999 4.063,0.624 8.668,1.331 12.924,1.332 h 0.001 c 1.427,0 2.74,-0.09 3.97,-0.251 -0.935,-1.105 -1.841,-2.235 -2.712,-3.391 -0.41,0.015 -0.826,0.027 -1.259,0.027 z"
         id="path266"
         style="fill:url(#linearGradient3605)"
         inkscape:connector-curvature="0" /></g><path
       stroke-miterlimit="10"
       d="m 179.92107,115.64528 c -55.217,-4.564 -146.156001,41.029 -152.644001,79.534 -6.49,38.506 87.371001,102.152 137.584001,106.831 50.213,4.677 151.662,-49.129 155.4,-81.903 3.738,-32.772 -82.406,-99.671 -140.34,-104.462 z"
       id="path268"
       inkscape:connector-curvature="0"
       style="fill:#ffffff;stroke:#000000;stroke-width:3;stroke-linecap:round;stroke-miterlimit:10" /><path
       stroke-miterlimit="10"
       d="m 161.48507,190.14928 c -2.824,22.355 -21.043,38.464 -40.693,35.982 -19.64,-2.482 -33.282001,-22.618 -30.456001,-44.973 2.823,-22.356 21.042001,-38.464 40.690001,-35.981 19.642,2.482 33.283,22.617 30.459,44.972 z"
       id="path270"
       inkscape:connector-curvature="0"
       style="opacity:0.5;fill:#2f7fc1;stroke:#000000;stroke-miterlimit:10" /><path
       stroke-miterlimit="10"
       d="m 256.52107,198.37228 c -2.825,22.355 -21.045,38.465 -40.694,35.983 -19.64,-2.483 -33.281,-22.618 -30.456,-44.974 2.823,-22.356 21.042,-38.464 40.691,-35.98 19.643,2.481 33.283,22.617 30.459,44.971 z"
       id="path272"
       inkscape:connector-curvature="0"
       style="opacity:0.5;fill:#2f7fc1;stroke:#000000;stroke-miterlimit:10" /><path
       stroke-miterlimit="10"
       d="m 253.41307,198.34128 c -2.424,19.182 -18.059,33.003 -34.916,30.875 -16.854,-2.131 -28.557,-19.407 -26.132,-38.588 2.421,-19.182 18.054,-33.003 34.913,-30.873 16.853,2.13 28.557,19.406 26.135,38.586 z"
       id="path274"
       inkscape:connector-curvature="0"
       style="fill:#ffffff;stroke:#a0a0a0;stroke-miterlimit:10" /><path
       stroke-miterlimit="10"
       d="m 155.19107,189.53128 c -2.422,19.182 -18.057,33.004 -34.914,30.875 -16.854,-2.131 -28.558001,-19.407 -26.133001,-38.589 2.422,-19.181 18.055001,-33.002 34.915001,-30.872 16.853,2.129 28.556,19.406 26.132,38.586 z"
       id="path276"
       inkscape:connector-curvature="0"
       style="fill:#ffffff;stroke:#a0a0a0;stroke-miterlimit:10" /><path
       d="m 145.31407,177.96928 c -2.11,0.66 -1.777,7.592 -5.304,7.592 -3.831,0 -6.938,-3.107 -6.938,-6.939 0,-3.756 4.589,-4.826 5.171,-6.916 0.583,-2.09 -4.214,-4.649 -7.576,-5.073 -12.58,-1.589 -24.246,8.725 -26.054,23.039 -1.038,8.212 3.878,21.563 6.041,21.354 2.163,-0.209 1.469,-2.45 2.937,-2.45 1.649,0 2.988,1.338 2.988,2.99 0,1.396 -1.781,1.119 -2.256,2.888 -0.475,1.77 6.146,3.555 9.793,4.016 12.581,1.589 24.247,-8.726 26.055,-23.041 0.81,-6.402 -2.746,-18.119 -4.857,-17.46 z"
       id="path278"
       inkscape:connector-curvature="0" /><path
       d="m 237.63907,185.45128 c -2.11,0.659 -1.776,7.591 -5.304,7.591 -3.832,0 -6.939,-3.106 -6.939,-6.938 0,-3.756 4.59,-4.826 5.172,-6.916 0.582,-2.089 -4.213,-4.648 -7.574,-5.073 -12.581,-1.59 -24.246,8.725 -26.055,23.039 -1.037,8.212 3.877,21.562 6.041,21.354 2.163,-0.209 1.469,-2.45 2.936,-2.45 1.65,0 2.988,1.338 2.988,2.99 0,1.397 -1.779,1.119 -2.256,2.889 -0.475,1.77 6.146,3.555 9.794,4.016 12.58,1.589 24.246,-8.726 26.054,-23.041 0.808,-6.403 -2.747,-18.12 -4.857,-17.461 z"
       id="path280"
       inkscape:connector-curvature="0" /><path
       stroke-miterlimit="10"
       d="m 170.95407,236.88528 c -0.781,8.92 -1.881,19.643 1.317,28.193 1.951,5.224 4.008,3.914 10.347,3.651 8.933,-0.104 10.412,-4.242 12.199,-8.354"
       id="path282"
       inkscape:connector-curvature="0"
       style="fill:none;stroke:#000000;stroke-width:2;stroke-linecap:round;stroke-miterlimit:10" /><path
       d="m 182.54907,230.19528 c -0.344,5.444 -5.972,9.521 -12.569,9.104 -6.597,-0.418 -11.665,-5.171 -11.321,-10.615 0.735,-11.592 5.778,-6.438 12.374,-6.02 6.596,0.417 12.251,-4.06 11.516,7.531 z"
       id="path284"
       inkscape:connector-curvature="0" /><g
       transform="translate(-144.93793,-58.472719)"
       id="g286"><line
         stroke-miterlimit="10"
         x1="320.806"
         y1="305.69299"
         x2="350.12601"
         y2="298.90701"
         id="line288"
         style="fill:none;stroke:#000000;stroke-linecap:round;stroke-miterlimit:10" /><line
         stroke-miterlimit="10"
         x1="321.02301"
         y1="309.53201"
         x2="342.82199"
         y2="307.746"
         id="line290"
         style="fill:none;stroke:#000000;stroke-linecap:round;stroke-miterlimit:10" /><line
         stroke-miterlimit="10"
         x1="320.23801"
         y1="312.37601"
         x2="350.63599"
         y2="316.41299"
         id="line292"
         style="fill:none;stroke:#000000;stroke-linecap:round;stroke-miterlimit:10" /></g><g
       transform="translate(-144.93793,-58.472719)"
       id="g294"><line
         stroke-miterlimit="10"
         x1="308.44601"
         y1="304.88599"
         x2="280.51401"
         y2="293.68201"
         id="line296"
         style="fill:none;stroke:#000000;stroke-linecap:round;stroke-miterlimit:10" /><line
         stroke-miterlimit="10"
         x1="307.64099"
         y1="308.646"
         x2="286.375"
         y2="303.53799"
         id="line298"
         style="fill:none;stroke:#000000;stroke-linecap:round;stroke-miterlimit:10" /><line
         stroke-miterlimit="10"
         x1="307.98199"
         y1="311.577"
         x2="277.323"
         y2="310.90302"
         id="line300"
         style="fill:none;stroke:#000000;stroke-linecap:round;stroke-miterlimit:10" /></g><path
       stroke-miterlimit="10"
       d="m 169.95907,236.94828 c -0.218,8.953 -0.318,19.73 -4.447,27.873 -2.521,4.975 -4.42,3.443 -10.69,2.477 -8.865,-1.099 -9.875,-5.376 -11.193,-9.662"
       id="path302"
       inkscape:connector-curvature="0"
       style="fill:none;stroke:#000000;stroke-width:2;stroke-linecap:round;stroke-miterlimit:10" /><path
       d="m 324.37707,216.31028 -0.132,-1.186 c -0.095,-0.786 -0.191,-1.582 -0.312,-2.35 -0.354,-1.364 -0.691,-2.737 -1.082,-4.071 -0.482,-1.276 -0.963,-2.547 -1.442,-3.813 -4.407,-9.746 -10.65,-17.557 -17.082,-24.552 -0.267,-0.288 -0.542,-0.55 -0.812,-0.834 l 0,0 c -6.241,-6.605 -12.798,-12.4 -19.367,-17.582 -8.045,-6.346 -16.083,-11.778 -23.881,-16.518 -25.71,-16.909 -55.274,-30.012 -80.154,-32.069 -2.61,-0.216 -5.354,-0.325 -8.158,-0.325 -23.259,0 -52.052,7.377 -79.198001,20.039 -0.24,0.101 -0.474,0.194 -0.714,0.297 -7.259,3.16 -14.82,6.74 -22.343,11.181 -7.551,4.388 -15.155,9.494 -22.407,15.677 -7.201,6.198 -14.218,13.457 -19.232,22.787 -0.562,1.205 -1.126,2.414 -1.691,3.625 -0.446,1.28 -0.895,2.565 -1.344,3.854 -0.087,0.347 -0.157,0.703 -0.239,1.053 l 0,0 c -0.232,1.001 -0.458,2.002 -0.681,3.007 -0.016,0.033 -0.091,0.646 -0.066,0.497 l -0.018,0.235 -0.034,0.471 -0.069,0.942 -0.139,1.889 c 0.066,1.488 0.197,2.994 0.333,4.482 0.298,1.36 0.597,2.725 0.897,4.092 0.398,1.323 0.877,2.615 1.319,3.921 0.461,1.299 1.1,2.501 1.647,3.757 3.168,6.461 7.34,12.262 12.024,17.661 27.946,33.937 87.266001,68.354 124.648001,71.836 2.106,0.196 4.348,0.296 6.662,0.296 1.72,0 3.482,-0.053 5.278,-0.154 2.252,-0.088 4.495,-0.199 6.722,-0.459 2.924,-0.227 5.795,-0.711 8.688,-1.109 2.855,-0.541 5.742,-0.982 8.562,-1.654 5.683,-1.204 11.241,-2.798 16.768,-4.436 5.481,-1.762 10.922,-3.612 16.237,-5.713 10.664,-4.115 20.959,-8.896 30.857,-14.16 9.901,-5.261 19.421,-11.002 28.318,-17.443 4.458,-3.2 8.771,-6.584 12.801,-10.27 4.059,-3.645 7.852,-7.608 11.196,-12.026 3.279,-4.428 6.317,-9.37 7.412,-15.48 l 0.209,-1.128 c 0.051,-0.755 0.017,-0.346 0.03,-0.575 l 0.004,-0.237 0.011,-0.473 0.04,-1.887 c 0.028,-0.277 -0.027,-0.702 -0.066,-1.095 z m -8.204,2.726 -0.02,0.474 -0.005,0.194 -0.153,0.668 c -0.686,3.898 -2.981,8.05 -5.854,11.866 -2.891,3.839 -6.345,7.497 -10.139,10.909 -3.781,3.421 -7.763,6.77 -12.002,9.89 -8.417,6.321 -17.569,12.062 -27.123,17.349 -9.548,5.306 -19.547,10.102 -29.854,14.362 -10.305,4.264 -20.92,8.037 -31.81,10.86 -2.71,0.773 -5.462,1.322 -8.202,1.973 -2.758,0.504 -5.515,1.102 -8.298,1.443 -2.757,0.452 -5.539,0.659 -8.301,0.889 -0.092,0.005 -0.182,0.009 -0.271,0.012 l -0.532,0.021 c -0.774,0.021 -1.544,0.033 -2.301,0.033 -2.171,0 -4.268,-0.093 -6.232,-0.275 -35.191,-3.279 -92.852001,-36.565 -120.276001,-68.73 -0.219,-0.27 -0.429,-0.542 -0.645,-0.813 -1.03,-1.292 -2.032,-2.597 -2.99,-3.92 l 0,0 c -3.199,-4.411 -5.964,-8.994 -8.017,-13.762 -0.428,-1.14 -0.961,-2.25 -1.304,-3.396 -0.319,-1.149 -0.687,-2.286 -0.976,-3.424 -0.196,-1.142 -0.389,-2.281 -0.583,-3.417 -0.024,-1.05 -0.059,-2.076 -0.146,-3.111 0.118,-1.169 0.236,-2.335 0.354,-3.497 0.277,-1.087 0.553,-2.169 0.827,-3.248 0.4,-1.059 0.801,-2.115 1.198,-3.167 0.511,-1.023 1.02,-2.042 1.528,-3.058 2.226,-3.999 4.985,-7.724 8,-11.178 3.055,-3.433 6.376,-6.574 9.734,-9.584 1.696,-1.486 3.433,-2.91 5.158,-4.313 1.783,-1.34 3.483,-2.75 5.289,-4.001 3.548,-2.578 7.081,-5.067 10.669,-7.32 8.763,-5.597 17.446,-10.385 25.831,-14.435 23.938001,-10.639 50.439001,-17.68 73.227001,-17.68 2.676,0 5.293,0.104 7.775,0.31 23.222,1.92 50.678,13.777 75.01,29.325 2.057,1.406 4.122,2.847 6.209,4.363 6.281,4.58 12.631,9.717 19.034,15.28 3.202,2.785 6.353,5.751 9.505,8.812 1.592,1.516 3.106,3.129 4.686,4.708 1.08,1.161 2.159,2.348 3.235,3.535 l 0,0 c 0.438,0.481 0.883,0.944 1.313,1.434 1.09,1.26 2.17,2.552 3.244,3.858 4.709,5.746 9.11,11.949 12.025,18.754 0.377,1.043 0.757,2.091 1.138,3.142 0.263,1.048 0.529,2.1 0.795,3.155 l 0.155,1.371 0.1,0.681 c 0.034,0.23 0.094,0.426 0.06,0.776 l -0.065,1.882 z"
       id="path311"
       style="fill:url(#linearGradient3607)"
       inkscape:connector-curvature="0" /><path
       d="m 342.76907,140.26628 c -1.056,-2.493 -2.912,-4.348 -4.762,-5.639 -1.867,-1.337 -3.828,-2.158 -5.74,-2.809 -1.923,-0.684 -3.825,-1.1 -5.721,-1.491 -3.789,-0.725 -7.526,-1.048 -11.238,-1.231 -3.715,-0.192 -7.4,-0.154 -11.067,-0.002 -7.329,0.314 -14.597,0.914 -21.8,1.912 -0.492,0.065 -0.98,0.149 -1.47,0.216 -14.748,1.425 -28.484,3.624 -35.899,4.909 2.1,1.186 4.182,2.406 6.251,3.652 7.533,-1.222 18.134,-2.771 29.373,-3.879 0.728,-0.042 1.456,-0.105 2.184,-0.143 7.167,-0.337 14.319,-0.641 21.425,-0.498 3.551,0.072 7.084,0.231 10.575,0.505 3.484,0.292 6.946,0.724 10.226,1.475 1.62,0.397 3.242,0.812 4.702,1.399 0.767,0.254 1.418,0.612 2.115,0.918 0.612,0.373 1.288,0.697 1.787,1.103 2.19,1.649 2.826,3.083 2.279,5.614 -0.062,0.599 -0.392,1.277 -0.585,1.928 -0.331,0.667 -0.602,1.344 -0.996,2.018 -0.766,1.352 -1.687,2.696 -2.698,4.009 -2.025,2.633 -4.437,5.132 -6.891,7.586 -2.471,2.45 -5.118,4.784 -7.813,7.069 -2.7,2.283 -5.479,4.498 -8.308,6.663 -1.721,1.321 -3.448,2.643 -5.183,3.954 0.27,0.284 0.545,0.547 0.812,0.834 1.364,1.483 2.715,3.013 4.046,4.581 1.612,-1.134 3.219,-2.284 4.804,-3.462 2.928,-2.19 5.821,-4.44 8.658,-6.785 2.838,-2.348 5.64,-4.757 8.326,-7.358 2.694,-2.593 5.313,-5.304 7.642,-8.438 1.171,-1.557 2.281,-3.204 3.271,-5.005 0.503,-0.89 0.92,-1.891 1.354,-2.854 0.345,-1.069 0.771,-2.054 0.949,-3.253 0.47,-2.253 0.492,-5.007 -0.608,-7.498 z"
       id="path322"
       style="fill:url(#linearGradient3609)"
       inkscape:connector-curvature="0" /><path
       d="m 49.278069,158.56028 c -2.181,-2.121 -4.315,-4.281 -6.442,-6.435 -2.496,-2.527 -4.937,-5.095 -7.287,-7.716 -2.351,-2.617 -4.671,-5.253 -6.781,-7.985 -2.1,-2.73 -4.145,-5.501 -5.776,-8.326 -0.818,-1.411 -1.536,-2.832 -2.101,-4.226 -0.295,-0.698 -0.463,-1.37 -0.696,-2.044 -0.096,-0.627 -0.326,-1.311 -0.307,-1.853 -0.096,-1.167 0.034,-2.03 0.423,-2.661 0.366,-0.652 1.083,-1.312 2.174,-1.897 0.501,-0.312 1.185,-0.535 1.803,-0.814 0.706,-0.206 1.368,-0.468 2.141,-0.619 1.477,-0.384 3.111,-0.584 4.743,-0.768 3.301,-0.318 6.762,-0.302 10.234,-0.145 3.475,0.18 6.987,0.469 10.507,0.844 7.045,0.752 14.087,1.969 21.152,3.187 3.528,0.63 7.053,1.311 10.574,2.036 0.073,0.014 0.147,0.031 0.22,0.045 10.273,2.646 19.291001,5.356 24.870001,7.102 2.372,-0.908 4.745,-1.763 7.117,-2.585 -2.199,-0.734 -15.07,-4.985 -30.971001,-9.079 -0.023,-0.007 -0.046,-0.015 -0.069,-0.022 -3.471,-1.071 -6.958,-2.101 -10.464,-3.082 -3.505,-0.988 -7.032,-1.924 -10.6,-2.715 -3.564,-0.813 -7.151,-1.561 -10.774,-2.212 -3.623,-0.661 -7.285,-1.208 -11.01,-1.521 -3.727,-0.324 -7.5,-0.514 -11.402,-0.305 -1.958,0.133 -3.927,0.288 -5.971,0.715 -2.023,0.398 -4.137,0.955 -6.254,2.078 -2.087,1.075 -4.297,2.753 -5.765,5.237 -1.514,2.478 -1.876,5.38 -1.702,7.775 0.023,1.274 0.32,2.337 0.528,3.487 0.31,1.043 0.603,2.124 0.99,3.096 0.759,1.964 1.657,3.777 2.624,5.501 1.918,3.466 4.168,6.527 6.504,9.481 1.168,1.475 2.357,2.922 3.586,4.314 1.206,1.425 2.456,2.784 3.718,4.137 2.527,2.699 5.117,5.309 7.748,7.862 2.053,1.979 4.149,3.905 6.263,5.804 1.471,-1.396 2.962,-2.75 4.466,-4.044 0.659,-0.562 1.323,-1.104 1.987,-1.647 z"
       id="path333"
       style="fill:url(#linearGradient3611)"
       inkscape:connector-curvature="0" /></g></svg>