<?xml version="1.0" encoding="UTF-8" standalone="no"?>
<!-- Generator: Adobe Illustrator 16.0.0, SVG Export Plug-In . SVG Version: 6.00 Build 0)  -->

<svg
   xmlns:dc="http://purl.org/dc/elements/1.1/"
   xmlns:cc="http://creativecommons.org/ns#"
   xmlns:rdf="http://www.w3.org/1999/02/22-rdf-syntax-ns#"
   xmlns:svg="http://www.w3.org/2000/svg"
   xmlns="http://www.w3.org/2000/svg"
   xmlns:xlink="http://www.w3.org/1999/xlink"
   xmlns:sodipodi="http://sodipodi.sourceforge.net/DTD/sodipodi-0.dtd"
   xmlns:inkscape="http://www.inkscape.org/namespaces/inkscape"
   version="1.1"
   id="svg2"
   x="0px"
   y="0px"
   width="625px"
   height="625px"
   viewBox="0 0 625 625"
   enable-background="new 0 0 625 625"
   xml:space="preserve"
   inkscape:version="0.48.3.1 r9886"
   sodipodi:docname="hyperkitty-logo.svg"
   inkscape:export-filename="/home/gauret/fedora/hk/hyperkitty/hyperkitty/static/img/logo.png"
   inkscape:export-xdpi="32.756775"
   inkscape:export-ydpi="32.756775"><metadata
   id="metadata401"><rdf:RDF><cc:Work
       rdf:about=""><dc:format>image/svg+xml</dc:format><dc:type
         rdf:resource="http://purl.org/dc/dcmitype/StillImage" /><dc:title></dc:title></cc:Work></rdf:RDF></metadata><defs
   id="defs399">
	

		
	
			
			
		
				
			
				
			
					<defs
   id="defs222">
						<rect
   height="625"
   width="625"
   y="0.583"
   x="0.667"
   id="SVGID_17_" />
					</defs>
					<clipPath
   id="SVGID_18_">
						<use
   height="625"
   width="625"
   y="0"
   x="0"
   style="overflow:visible"
   id="use226"
   overflow="visible"
   xlink:href="#SVGID_17_" />
					</clipPath>
					
				
					<defs
   id="defs233">
						<rect
   height="625"
   width="625"
   y="0.583"
   x="0.667"
   id="SVGID_19_" />
					</defs>
					<clipPath
   id="SVGID_20_">
						<use
   height="625"
   width="625"
   y="0"
   x="0"
   style="overflow:visible"
   id="use237"
   overflow="visible"
   xlink:href="#SVGID_19_" />
					</clipPath>
					
				
						
					
					
							
							
						
								
							
								
							
									<defs
   id="defs245">
										<rect
   height="94.366997"
   width="109.49"
   y="208.127"
   x="107.312"
   id="SVGID_21_" />
									</defs>
									<clipPath
   id="SVGID_22_">
										<use
   height="625"
   width="625"
   y="0"
   x="0"
   style="overflow:visible"
   id="use249"
   overflow="visible"
   xlink:href="#SVGID_21_" />
									</clipPath>
									
								
									<defs
   id="defs261">
										<rect
   height="625"
   width="625"
   y="0.583"
   x="0.667"
   id="SVGID_23_" />
									</defs>
									<clipPath
   id="SVGID_24_">
										<use
   height="625"
   width="625"
   y="0"
   x="0"
   style="overflow:visible"
   id="use265"
   overflow="visible"
   xlink:href="#SVGID_23_" />
									</clipPath>
									
								
										
									
										
										
									
											
												
										
											
										
											
										
												
												
												
												
												
												
													
												
												
												
												
												
													
												
												
												
												
												
													
												
												
													
												
												
													
												
												
												
												
												
												
												
												
												
												
												
												
												
												
											</defs><sodipodi:namedview
   pagecolor="#ffffff"
   bordercolor="#666666"
   borderopacity="1"
   objecttolerance="10"
   gridtolerance="10"
   guidetolerance="10"
   inkscape:pageopacity="0"
   inkscape:pageshadow="2"
   inkscape:window-width="1920"
   inkscape:window-height="1028"
   id="namedview397"
   showgrid="false"
   inkscape:zoom="1.0680141"
   inkscape:cx="182.19848"
   inkscape:cy="275.34502"
   inkscape:window-x="-2"
   inkscape:window-y="-3"
   inkscape:window-maximized="1"
   inkscape:current-layer="svg2" />
<path
   style="fill:#ffffff;fill-opacity:1;stroke:none"
   d="m 114.47223,204.1667 c -1.25511,11.73328 11.4741,146.16271 11.4741,146.16271 0,0 25.00895,132.03747 28.44918,140.35842 23.45159,-1.05722 136.29289,-2.30513 146.47106,-2.03946 10.17818,0.26565 127.67634,7.98693 143.33293,10.28672 3.10487,-6.04811 40.18096,-119.36119 40.18096,-119.36119 0,0 25.52565,-120.15355 26.51209,-141.69529 -33.91807,-5.24734 -194.53856,-27.34073 -194.53856,-27.34073 z"
   id="path3225"
   inkscape:connector-curvature="0"
   sodipodi:nodetypes="ccczccccc" /><g
   id="g12"
   transform="matrix(0.79163735,0,0,0.79163735,63.608425,17.321595)">
	<g
   id="g4">
		<g
   id="g6">
			<g
   id="g8">
				<g
   id="g10">
					<defs
   id="defs12">
						<path
   id="SVGID_1_"
   d="M 62.956,290.539 C 62.93,468.957 113.772,594.56 113.772,594.56 l 0,0 C 97.479,480.61 64.187,242.793 64.187,242.793 l 0,0 c -0.84,16.284 -1.229,32.215 -1.231,47.746"
   inkscape:connector-curvature="0" />
					</defs>
					<clipPath
   id="SVGID_2_">
						<use
   xlink:href="#SVGID_1_"
   overflow="visible"
   id="use16"
   style="overflow:visible"
   x="0"
   y="0"
   width="625"
   height="625" />
					</clipPath>
					<g
   id="g14"
   clip-path="url(#SVGID_2_)">
						<g
   id="g20">
							<g
   id="g22">
								
									<linearGradient
   id="path32_1_"
   gradientUnits="userSpaceOnUse"
   x1="251.1196"
   y1="0.37009999"
   x2="252.1196"
   y2="0.37009999"
   gradientTransform="matrix(-108.7402,-332.4109,-332.4109,108.7402,27572.953,84019.781)">
									<stop
   offset="0"
   style="stop-color:#47488B"
   id="stop22" />
									<stop
   offset="0.4888"
   style="stop-color:#6191C4"
   id="stop24" />
									<stop
   offset="1"
   style="stop-color:#3E3A5F"
   id="stop26" />
								</linearGradient>
								<path
   id="path32"
   inkscape:connector-curvature="0"
   d="M 62.956,290.539 C 62.93,468.957 113.772,594.56 113.772,594.56 l 0,0 C 97.479,480.61 64.187,242.793 64.187,242.793 l 0,0 c -0.84,16.284 -1.229,32.215 -1.231,47.746"
   style="fill:url(#path32_1_)" />
							</g>
						</g>
					</g>
				</g>
			</g>
		</g>
	</g>
</g>
<g
   id="g34"
   transform="matrix(0.79163735,0,0,0.79163735,63.608425,17.321595)">
	<g
   id="g30">
		<g
   id="g32">
			<g
   id="g35">
				<g
   id="g37">
					<defs
   id="defs39">
						<path
   id="SVGID_3_"
   d="M 307.826,465.16 C 198.247,316.757 69.683,243.924 69.683,243.924 l 0,0 c 77.305,71.551 238.143,221.236 238.143,221.236"
   inkscape:connector-curvature="0" />
					</defs>
					<clipPath
   id="SVGID_4_">
						<use
   xlink:href="#SVGID_3_"
   overflow="visible"
   id="use43"
   style="overflow:visible"
   x="0"
   y="0"
   width="625"
   height="625" />
					</clipPath>
					<g
   id="g36"
   clip-path="url(#SVGID_4_)">
						<g
   id="g42">
							<g
   id="g44">
								
									<linearGradient
   id="path54_1_"
   gradientUnits="userSpaceOnUse"
   x1="252.5107"
   y1="-0.85299999"
   x2="253.5107"
   y2="-0.85299999"
   gradientTransform="matrix(265.9584,180.2583,191.1881,-282.069,-66938.281,-45493.563)">
									<stop
   offset="0"
   style="stop-color:#47488B"
   id="stop49" />
									<stop
   offset="0.4888"
   style="stop-color:#6191C4"
   id="stop51" />
									<stop
   offset="1"
   style="stop-color:#3E3A5F"
   id="stop53" />
								</linearGradient>
								<path
   id="path54"
   inkscape:connector-curvature="0"
   d="M 307.826,465.16 C 198.247,316.757 69.683,243.924 69.683,243.924 l 0,0 c 77.305,71.551 238.143,221.236 238.143,221.236"
   style="fill:url(#path54_1_)" />
							</g>
						</g>
					</g>
				</g>
			</g>
		</g>
	</g>
</g>
<g
   id="g56"
   transform="matrix(0.79163735,0,0,0.79163735,63.608425,17.321595)">
	<g
   id="g57">
		<g
   id="g59">
			<g
   id="g61">
				<g
   id="g63">
					<defs
   id="defs65">
						<path
   id="SVGID_5_"
   d="M 116.364,594.985 C 164.191,547.431 264.157,448.439 264.157,448.439 l 0,0 C 171.149,520.583 116.364,594.985 116.364,594.985"
   inkscape:connector-curvature="0" />
					</defs>
					<clipPath
   id="SVGID_6_">
						<use
   xlink:href="#SVGID_5_"
   overflow="visible"
   id="use69"
   style="overflow:visible"
   x="0"
   y="0"
   width="625"
   height="625" />
					</clipPath>
					<g
   id="g58"
   clip-path="url(#SVGID_6_)">
						<g
   id="g64">
							<g
   id="g66">
								
									<linearGradient
   id="path76_1_"
   gradientUnits="userSpaceOnUse"
   x1="250.59911"
   y1="-1.2344"
   x2="251.59911"
   y2="-1.2344"
   gradientTransform="matrix(118.3905,-167.3479,-112.3199,-79.4412,-29676.074,42444.563)">
									<stop
   offset="0"
   style="stop-color:#47488B"
   id="stop75" />
									<stop
   offset="0.4888"
   style="stop-color:#6191C4"
   id="stop77" />
									<stop
   offset="1"
   style="stop-color:#3E3A5F"
   id="stop79" />
								</linearGradient>
								<path
   id="path76"
   inkscape:connector-curvature="0"
   d="M 116.364,594.985 C 164.191,547.431 264.157,448.439 264.157,448.439 l 0,0 C 171.149,520.583 116.364,594.985 116.364,594.985"
   style="fill:url(#path76_1_)" />
							</g>
						</g>
					</g>
				</g>
			</g>
		</g>
	</g>
</g>
<g
   id="g78"
   transform="matrix(0.79163735,0,0,0.79163735,63.608425,17.321595)">
	<g
   id="g83">
		<g
   id="g85">
			<g
   id="g87">
				<g
   id="g89">
					<defs
   id="defs91">
						<path
   id="SVGID_7_"
   d="M 480.029,605.062 C 416.55,509.98 344.573,448.936 344.573,448.936 l 0,0 c 43.97,50.543 135.456,156.126 135.456,156.126"
   inkscape:connector-curvature="0" />
					</defs>
					<clipPath
   id="SVGID_8_">
						<use
   xlink:href="#SVGID_7_"
   overflow="visible"
   id="use95"
   style="overflow:visible"
   x="0"
   y="0"
   width="625"
   height="625" />
					</clipPath>
					<g
   id="g80"
   clip-path="url(#SVGID_8_)">
						<g
   id="g86">
							<g
   id="g88">
								
									<linearGradient
   id="path98_1_"
   gradientUnits="userSpaceOnUse"
   x1="253.0347"
   y1="-1.8573999"
   x2="254.0347"
   y2="-1.8573999"
   gradientTransform="matrix(147.1929,144.0936,96.711,-98.788,-36726.195,-36189.531)">
									<stop
   offset="0"
   style="stop-color:#47488B"
   id="stop101" />
									<stop
   offset="0.4888"
   style="stop-color:#6191C4"
   id="stop103" />
									<stop
   offset="1"
   style="stop-color:#3E3A5F"
   id="stop105" />
								</linearGradient>
								<path
   id="path98"
   inkscape:connector-curvature="0"
   d="M 480.029,605.062 C 416.55,509.98 344.573,448.936 344.573,448.936 l 0,0 c 43.97,50.543 135.456,156.126 135.456,156.126"
   style="fill:url(#path98_1_)" />
							</g>
						</g>
					</g>
				</g>
			</g>
		</g>
	</g>
</g>
<g
   id="g100"
   transform="matrix(0.79163735,0,0,0.79163735,63.608425,17.321595)">
	<g
   id="g109">
		<g
   id="g111">
			<g
   id="g113">
				<g
   id="g115">
					<defs
   id="defs117">
						<path
   id="SVGID_9_"
   d="m 307.826,465.16 c 0,0 173.452,-122.965 256.762,-181.692 l 0,0 c 0,0 -131.132,55.611 -256.762,181.692"
   inkscape:connector-curvature="0" />
					</defs>
					<clipPath
   id="SVGID_10_">
						<use
   xlink:href="#SVGID_9_"
   overflow="visible"
   id="use121"
   style="overflow:visible"
   x="0"
   y="0"
   width="625"
   height="625" />
					</clipPath>
					<g
   id="g102"
   clip-path="url(#SVGID_10_)">
						<g
   id="g108">
							<g
   id="g110">
								
									<linearGradient
   id="path120_1_"
   gradientUnits="userSpaceOnUse"
   x1="252.5547"
   y1="-0.91409999"
   x2="253.55521"
   y2="-0.91409999"
   gradientTransform="matrix(-276.6811,141.4602,-137.9484,-277.9766,70325.352,-35677.234)">
									<stop
   offset="0"
   style="stop-color:#47488B"
   id="stop127" />
									<stop
   offset="0.4888"
   style="stop-color:#6191C4"
   id="stop129" />
									<stop
   offset="1"
   style="stop-color:#3E3A5F"
   id="stop131" />
								</linearGradient>
								<path
   id="path120"
   inkscape:connector-curvature="0"
   d="m 307.826,465.16 c 0,0 173.452,-122.965 256.762,-181.692 l 0,0 c 0,0 -131.132,55.611 -256.762,181.692"
   style="fill:url(#path120_1_)" />
							</g>
						</g>
					</g>
				</g>
			</g>
		</g>
	</g>
</g>
<g
   id="g122"
   transform="matrix(0.79163735,0,0,0.79163735,63.608425,17.321595)">
	<g
   id="g135">
		<g
   id="g137">
			<g
   id="g139">
				<g
   id="g141">
					<defs
   id="defs143">
						<path
   id="SVGID_11_"
   d="m 481.98,604.472 c 0,0 79.274,-120.902 81.438,-311.534 l 0,0 c 0.002,0 -54.782,210.677 -81.438,311.534"
   inkscape:connector-curvature="0" />
					</defs>
					<clipPath
   id="SVGID_12_">
						<use
   xlink:href="#SVGID_11_"
   overflow="visible"
   id="use147"
   style="overflow:visible"
   x="0"
   y="0"
   width="625"
   height="625" />
					</clipPath>
					<g
   id="g124"
   clip-path="url(#SVGID_12_)">
						<g
   id="g130">
							<g
   id="g132">
								
									<linearGradient
   id="path142_1_"
   gradientUnits="userSpaceOnUse"
   x1="251.02251"
   y1="0.3096"
   x2="252.02251"
   y2="0.3096"
   gradientTransform="matrix(146.8844,-276.7593,376.9478,200.0598,-36537.844,69998.172)">
									<stop
   offset="0"
   style="stop-color:#47488B"
   id="stop153" />
									<stop
   offset="0.4888"
   style="stop-color:#6191C4"
   id="stop155" />
									<stop
   offset="1"
   style="stop-color:#3E3A5F"
   id="stop157" />
								</linearGradient>
								<path
   id="path142"
   inkscape:connector-curvature="0"
   d="m 481.98,604.472 c 0,0 79.274,-120.902 81.438,-311.534 l 0,0 c 0.002,0 -54.782,210.677 -81.438,311.534"
   style="fill:url(#path142_1_)" />
							</g>
						</g>
					</g>
				</g>
			</g>
		</g>
	</g>
</g>
<g
   id="g144"
   transform="matrix(0.79163735,0,0,0.79163735,63.608425,17.321595)">
	<g
   id="g161">
		<g
   id="g163">
			<g
   id="g165">
				<g
   id="g167">
					<defs
   id="defs169">
						<path
   id="SVGID_13_"
   d="m 114.404,598.185 c 0,0 251.217,7.258 371.563,11.072 l 0,0 c 0,0 -82.366,-24.009 -209.646,-24.013 l 0,0 c -48.209,0 -102.84,3.444 -161.917,12.941"
   inkscape:connector-curvature="0" />
					</defs>
					<clipPath
   id="SVGID_14_">
						<use
   xlink:href="#SVGID_13_"
   overflow="visible"
   id="use173"
   style="overflow:visible"
   x="0"
   y="0"
   width="625"
   height="625" />
					</clipPath>
					<g
   id="g146"
   clip-path="url(#SVGID_14_)">
						<g
   id="g152">
							<g
   id="g154">
								
									<linearGradient
   id="path164_1_"
   gradientUnits="userSpaceOnUse"
   x1="251.83299"
   y1="-0.73439997"
   x2="252.83299"
   y2="-0.73439997"
   gradientTransform="matrix(-349.0118,-94.4413,116.6605,-431.2263,88453.008,24117.703)">
									<stop
   offset="0"
   style="stop-color:#47488B"
   id="stop179" />
									<stop
   offset="0.4888"
   style="stop-color:#6191C4"
   id="stop181" />
									<stop
   offset="1"
   style="stop-color:#3E3A5F"
   id="stop183" />
								</linearGradient>
								<path
   id="path164"
   inkscape:connector-curvature="0"
   d="m 114.404,598.185 c 0,0 251.217,7.258 371.563,11.072 l 0,0 c 0,0 -82.366,-24.009 -209.646,-24.013 l 0,0 c -48.209,0 -102.84,3.444 -161.917,12.941"
   style="fill:url(#path164_1_)" />
							</g>
						</g>
					</g>
				</g>
			</g>
		</g>
	</g>
</g>
<g
   id="g166"
   transform="matrix(0.79163735,0,0,0.79163735,63.608425,17.321595)">
	<g
   id="g187">
		<g
   id="g189">
			<g
   id="g191">
				<g
   id="g193">
					<defs
   id="defs195">
						<path
   id="SVGID_15_"
   d="m 54.828,236.029 c 168.234,13.979 519.146,43.915 519.146,43.915 l 0,0 C 405.593,240.15 256.349,231.909 161.591,231.909 l 0,0 c -67,0 -106.763,4.12 -106.763,4.12"
   inkscape:connector-curvature="0" />
					</defs>
					<clipPath
   id="SVGID_16_">
						<use
   xlink:href="#SVGID_15_"
   overflow="visible"
   id="use199"
   style="overflow:visible"
   x="0"
   y="0"
   width="625"
   height="625" />
					</clipPath>
					<g
   id="g168"
   clip-path="url(#SVGID_16_)">
						<g
   id="g174">
							<g
   id="g176">
								
									<linearGradient
   id="path186_1_"
   gradientUnits="userSpaceOnUse"
   x1="251.89549"
   y1="-0.7026"
   x2="252.89549"
   y2="-0.7026"
   gradientTransform="matrix(512.359,-40.8582,-37.2411,-467.053,-129028.63,10242.156)">
									<stop
   offset="0"
   style="stop-color:#47488B"
   id="stop205" />
									<stop
   offset="0.4888"
   style="stop-color:#6191C4"
   id="stop207" />
									<stop
   offset="1"
   style="stop-color:#3E3A5F"
   id="stop209" />
								</linearGradient>
								<path
   id="path186"
   inkscape:connector-curvature="0"
   d="m 54.828,236.029 c 168.234,13.979 519.146,43.915 519.146,43.915 l 0,0 C 405.593,240.15 256.349,231.909 161.591,231.909 l 0,0 c -67,0 -106.763,4.12 -106.763,4.12"
   style="fill:url(#path186_1_)" />
							</g>
						</g>
					</g>
				</g>
			</g>
		</g>
	</g>
</g>
<path
   style="opacity:0.95;fill:#292929"
   d="m 201.73585,184.06162 c -10.53194,9.49095 -26.47949,24.13704 -51.19123,47.28055 -0.009,0.77186 -0.004,1.53975 0.006,2.29576 0.0793,5.59608 0.72673,10.64355 2.40895,13.91381 1.68302,3.27025 4.39756,4.76486 7.48415,5.52404 3.08739,0.75999 6.53972,0.78847 9.68409,1.12176 3.14361,0.33327 7.23715,0.82172 11.15181,0.51218 3.9186,-0.30874 7.66145,-1.41782 10.09969,-4.25188 2.43667,-2.83249 5.78293,-8.24964 8.66845,-14.32943 2.88868,-6.07977 6.14546,-16.56105 6.72495,-22.03048 0.58105,-5.46624 1.22229,-10.47889 2.0076,-16.26973 0.39898,-2.94331 0.96895,-0.83122 4.18933,0.81936 4.01599,2.05982 18.58845,3.83547 20.25484,2.41528 0.42352,-0.52329 -3.64074,-8.75709 -5.66733,-14.26056 l -25.82168,-2.74066 z"
   inkscape:connector-curvature="0"
   id="path210" /><path
   style="opacity:0.95;fill:none;stroke:#292929;stroke-width:3.16654944;stroke-linecap:square;stroke-linejoin:round"
   d="m 201.73585,184.06162 c -10.53194,9.49095 -26.47949,24.13704 -51.19123,47.28055 -0.009,0.77186 -0.004,1.53975 0.006,2.29576 0.0793,5.59608 0.72673,10.64355 2.40895,13.91381 1.68302,3.27025 4.39756,4.76486 7.48415,5.52404 3.08739,0.75999 6.53972,0.78847 9.68409,1.12176 3.14361,0.33327 7.23715,0.82172 11.15181,0.51218 3.9186,-0.30874 7.66145,-1.41782 10.09969,-4.25188 2.43667,-2.83249 5.78293,-8.24964 8.66845,-14.32943 2.88868,-6.07977 6.14546,-16.56105 6.72495,-22.03048 0.58105,-5.46624 1.22229,-10.47889 2.0076,-16.26973 0.39898,-2.94331 0.96895,-0.83122 4.18933,0.81936 4.01599,2.05982 18.58845,3.83547 20.25484,2.41528 0.42352,-0.52329 -3.64074,-8.75709 -5.66733,-14.26056 l -25.82163,-2.74066 0,0 z"
   inkscape:connector-curvature="0"
   id="path214" /><g
   id="g224"
   transform="matrix(0.79163735,0,0,0.79163735,63.608425,17.321595)">
													<defs
   id="defs274">
														
															<rect
   id="SVGID_25_"
   x="421.76401"
   y="232.433"
   transform="matrix(-0.9998,0.021,-0.021,-0.9998,948.5114,559.5722)"
   width="99.107002"
   height="104.666" />
													</defs>
													<clipPath
   id="SVGID_26_">
														<use
   xlink:href="#SVGID_25_"
   overflow="visible"
   id="use278"
   style="overflow:visible"
   x="0"
   y="0"
   width="625"
   height="625" />
													</clipPath>
													<g
   id="g226"
   clip-path="url(#SVGID_26_)"
   style="opacity:0.95">
														<g
   id="g228"
   transform="translate(346.6895,309.9272)">
															<path
   id="path230"
   inkscape:connector-curvature="0"
   d="m 87.348,-74.24 c -3.828,6.34 -10.842,15.583 -10.44,16.332 1.729,2.158 20.229,3.442 25.7,1.848 4.393,-1.276 5.603,-3.762 5.396,-0.014 -0.412,7.371 -0.812,13.742 -1.402,20.661 -0.59,6.922 0.945,20.701 3.072,28.933 2.124,8.231 4.979,15.751 7.325,19.85 2.346,4.098 6.723,6.37 11.506,7.688 4.788,1.319 9.979,1.696 13.958,2.03 3.979,0.338 8.271,1.134 12.281,0.93 4.008,-0.205 7.734,-1.41 10.603,-5.062 2.868,-3.658 4.884,-9.76 6.317,-16.684 0.196,-0.936 0.382,-1.887 0.556,-2.844 -25.111,-34.62 -41.393,-56.601 -52.187,-70.891 L 87.348,-74.24 z"
   style="fill:#292929" />
														</g>
														<g
   id="g232"
   transform="translate(346.6895,309.9272)">
															
																<path
   id="path234"
   inkscape:connector-curvature="0"
   d="m 87.348,-74.24 c -3.828,6.34 -10.842,15.583 -10.44,16.332 1.729,2.158 20.229,3.442 25.7,1.848 4.393,-1.276 5.603,-3.762 5.396,-0.014 -0.412,7.371 -0.812,13.742 -1.402,20.661 -0.59,6.922 0.945,20.701 3.072,28.933 2.124,8.231 4.979,15.751 7.325,19.85 2.346,4.098 6.723,6.37 11.506,7.688 4.788,1.319 9.979,1.696 13.958,2.03 3.979,0.338 8.271,1.134 12.281,0.93 4.008,-0.205 7.734,-1.41 10.603,-5.062 2.868,-3.658 4.884,-9.76 6.317,-16.684 0.196,-0.936 0.382,-1.887 0.556,-2.844 -25.111,-34.62 -41.393,-56.601 -52.187,-70.891 L 87.348,-74.24 z"
   style="fill:none;stroke:#292929;stroke-width:4;stroke-linecap:square;stroke-linejoin:round" />
														</g>
													</g>
												</g><path
   d="m 226.3849,195.17083 c 0.62935,1.9807 1.55478,3.87349 3.09926,5.5288 5.38155,5.7845 9.47274,12.76991 16.26181,17.24108 10.1005,6.65212 19.86377,13.82752 30.81529,19.03887 10.49473,4.99285 20.71397,11.0948 31.98134,13.93361 0.7014,0.17573 1.68066,0.54623 2.66545,0.9167 0.30795,-0.0127 0.61352,-0.0261 0.91988,-0.0379 0.27866,-0.29291 0.72673,-0.67053 1.40833,-1.15581 0.42114,0.42591 0.7291,0.77423 0.95392,1.06239 1.71311,-0.061 3.42383,-0.0974 5.13535,-0.0657 11.13835,-1.09247 21.85236,-5.18127 32.64237,-8.22038 11.6727,-3.28926 22.50942,-8.71434 33.58442,-13.56708 7.44614,-3.26154 12.65908,-9.45848 18.94231,-14.24947 1.79781,-1.37428 3.03038,-3.08184 3.9859,-4.92793 L 226.3849,195.17095 z"
   id="path285"
   inkscape:connector-curvature="0"
   style="fill:#292929" /><path
   stroke-miterlimit="10"
   d="m 226.3849,195.17083 c 0.62935,1.9807 1.55478,3.87349 3.09926,5.5288 5.38155,5.7845 9.47274,12.76991 16.26181,17.24108 10.1005,6.65212 19.86377,13.82752 30.81529,19.03887 10.49473,4.99285 20.71397,11.0948 31.98134,13.93361 0.7014,0.17573 1.68066,0.54623 2.66545,0.9167 2.80873,-0.12269 5.6135,-0.24697 8.41906,-0.19789 11.13833,-1.09245 21.85236,-5.18127 32.64237,-8.22036 11.6727,-3.28925 22.50943,-8.71436 33.58602,-13.56709 7.44455,-3.26155 12.65748,-9.45849 18.9407,-14.24947 1.79781,-1.3743 3.03039,-3.08184 3.98589,-4.92793 L 226.3849,195.17083 z"
   id="path287"
   inkscape:connector-curvature="0"
   style="fill:none;stroke:#292929;stroke-width:3.16654944;stroke-miterlimit:10" /><path
   id="path246"
   inkscape:connector-curvature="0"
   d="m 318.64866,248.78209 c 5.83436,0.80907 11.79539,-0.18682 17.42552,-1.92367 5.62615,-1.73685 11.00058,-4.19884 16.45734,-6.41701 11.189,-4.54558 22.81736,-8.08262 33.58283,-13.56232 7.0923,-3.60908 13.86317,-8.1325 18.93993,-14.25897 3.75078,-4.52422 6.51043,-9.86699 8.02563,-15.54619 0.0515,-5.10923 -1.50571,-10.22162 -4.39518,-14.43392 -1.36716,-1.99018 -3.01059,-3.76899 -4.59862,-5.58816 -4.83374,-5.54146 -9.18615,-11.51911 -14.44105,-16.66713 -5.20818,-5.10766 -11.23017,-9.3255 -17.46511,-13.11348 -7.9425,-4.82503 -16.29268,-8.9946 -24.99199,-12.26405 -7.54826,-2.83801 -15.34985,-4.99602 -23.286,-6.4376 -8.06362,0.0824 -16.11775,0.89219 -24.03806,2.41609 -9.12602,1.75585 -18.05964,4.4577 -26.70273,7.87203 -6.78671,2.68128 -13.43013,5.82329 -19.42599,9.97781 -6.04653,4.18776 -11.34733,9.34368 -17.04712,13.9898 -1.87144,1.52628 -3.79115,3.0027 -5.47339,4.734 -3.56156,3.66448 -5.95864,8.44124 -6.77166,13.48554 0.53753,5.85337 2.35435,11.58404 5.28894,16.67664 3.97163,6.89754 9.88041,12.49599 16.26339,17.25056 9.68489,7.21577 20.54932,12.6654 30.8129,19.03492 5.00553,3.10559 9.8836,6.43918 15.13927,9.10225 5.2549,2.66069 10.96259,4.64928 16.8492,4.83453 1.6664,0.0531 2.97736,0.91197 4.62951,0.67447 1.58327,0.5114 3.57187,-0.0641 5.22244,0.16386"
   style="fill:#ffffff;stroke:#292929;stroke-width:3.16654944" /><path
   id="path250"
   inkscape:connector-curvature="0"
   d="m 205.09777,215.17867 c -0.4647,5.47813 -3.49033,16.02434 -6.2484,22.16427 -2.75965,6.13678 -5.99585,11.62837 -8.37472,14.5123 -2.37809,2.88393 -6.09481,4.06189 -10.00471,4.45296 -3.90911,0.39028 -8.01297,-0.006 -11.16289,-0.2747 -3.1515,-0.26679 -6.60225,-0.22086 -9.7031,-0.91513 -3.10163,-0.69349 -5.85335,-2.1295 -7.60526,-5.36572 -1.7511,-3.23384 -2.50158,-8.26707 -2.6987,-13.86236 -0.19789,-5.5953 0.16071,-11.75106 0.62699,-17.23077 0.93097,-10.95865 10.10842,-27.49278 14.84874,-34.32302 5.35226,-9.66116 16.20007,-16.71227 23.56784,-18.72303 7.36619,-2.01076 10.97051,-1.46769 17.29965,1.44394 6.32994,2.90769 14.67934,5.2842 16.92282,10.38392 0.56128,1.27294 -0.0371,1.02834 0.88347,2.63616 0.92068,1.60622 0.006,1.01565 0.75049,2.70819 -1.06081,2.09467 7.66067,18.04299 7.07802,18.79505 -1.63632,1.45344 -16.24124,-0.011 -20.29996,-1.98463 -3.25442,-1.58329 -3.87111,-3.68904 -4.20835,-0.73703 -0.66418,5.80825 -1.20723,10.8399 -1.67193,16.3196"
   style="fill:#ffffff" /><path
   id="path254"
   inkscape:connector-curvature="0"
   d="m 205.09777,215.17867 c -0.4647,5.47813 -3.49033,16.02434 -6.2484,22.16427 -2.75965,6.13678 -5.99585,11.62837 -8.37472,14.5123 -2.37809,2.88393 -6.09481,4.06189 -10.00471,4.45296 -3.90911,0.39028 -8.01297,-0.006 -11.16289,-0.2747 -3.1515,-0.26679 -6.60225,-0.22086 -9.7031,-0.91513 -3.10163,-0.69349 -5.85335,-2.1295 -7.60526,-5.36572 -1.7511,-3.23384 -2.50158,-8.26707 -2.6987,-13.86236 -0.19789,-5.5953 0.16071,-11.75106 0.62699,-17.23077 0.93097,-10.95865 10.10842,-27.49278 14.84874,-34.32302 5.35226,-9.66116 16.20007,-16.71227 23.56784,-18.72303 7.36619,-2.01076 10.97051,-1.46769 17.29965,1.44394 6.32994,2.90769 14.67934,5.2842 16.92282,10.38392 0.56128,1.27294 -0.0371,1.02834 0.88347,2.63616 0.92068,1.60622 0.006,1.01565 0.75049,2.70819 -1.06081,2.09467 7.66067,18.04299 7.07802,18.79505 -1.63632,1.45344 -16.24124,-0.011 -20.29996,-1.98463 -3.25442,-1.58329 -3.87111,-3.68904 -4.20835,-0.73703 -0.66418,5.80825 -1.20723,10.8399 -1.67193,16.3196 z"
   style="fill:none;stroke:#292929;stroke-width:3.16654944;stroke-linecap:square;stroke-linejoin:round" /><path
   id="path258"
   inkscape:connector-curvature="0"
   d="m 159.82799,254.82547 c 0.072,0.67368 0.44569,0.19631 0.66656,0.29448 0.22325,0.0981 0.45756,0.84388 0.66735,0.29448 0.55573,-1.44394 0.73859,-4.59149 0.78292,-7.37805 0.0444,-2.78577 0.45362,-4.98731 -0.0507,-5.20897 -0.50427,-0.22246 -0.61035,2.1113 -1.1748,4.66748 -0.56363,2.55541 -1.07978,5.55493 -0.89137,7.33058"
   style="fill:#292929" /><path
   id="path262"
   inkscape:connector-curvature="0"
   d="m 168.73707,255.58226 c 0.072,0.6737 0.44491,0.19633 0.66657,0.29529 0.22324,0.0981 0.45757,0.84309 0.66813,0.29527 0.55495,-1.44473 0.7386,-4.59227 0.78215,-7.37725 0.0443,-2.78736 0.4552,-4.98654 -0.0507,-5.21135 -0.50507,-0.22325 -0.61115,2.11209 -1.1748,4.66828 -0.56364,2.55381 -1.07979,5.55413 -0.89138,7.32976"
   style="fill:#292929" /><path
   id="path266"
   inkscape:connector-curvature="0"
   d="m 180.99005,255.74929 c 0.14006,0.54702 0.36652,0.099 0.54938,0.14724 0.18288,0.0491 0.45599,0.63092 0.54862,0.14645 0.24698,-1.27532 -0.006,-3.90435 -0.32142,-6.21276 -0.31506,-2.30921 -0.27629,-4.18936 -0.69108,-4.30097 -0.41722,-0.11014 -0.20505,1.83501 -0.31825,4.031 -0.1132,2.19443 -0.13386,4.75142 0.23275,6.18903"
   style="fill:#292929" /><path
   id="path270"
   inkscape:connector-curvature="0"
   d="m 424.92991,233.85737 c -0.46786,5.47971 0.73385,16.38293 2.41926,22.89968 1.68144,6.51518 3.94711,12.47542 5.80111,15.71717 1.86193,3.24255 5.32534,5.03165 9.11491,6.07662 3.78483,1.04495 7.89817,1.34498 11.0481,1.61414 3.14913,0.26758 6.54367,0.89772 9.71656,0.73622 3.17605,-0.16069 6.12885,-1.11145 8.40242,-4.00489 2.27043,-2.89184 3.85925,-7.72954 4.99684,-13.21085 1.13756,-5.4805 1.82313,-11.61014 2.29019,-17.08828 0.93096,-10.95863 -5.32692,-28.80531 -8.84338,-36.33615 -3.64707,-10.42746 -13.1475,-19.2067 -20.07117,-22.43184 -6.92128,-3.22433 -10.56362,-3.29559 -17.2949,-1.49699 -6.72813,1.80019 -15.36251,2.73353 -18.43169,7.38123 -0.76869,1.16292 -0.13769,1.02121 -1.31649,2.44932 -1.17876,1.42812 -0.1805,0.99904 -1.19776,2.54433 0.69269,2.24351 -10.59527,16.49138 -10.1472,17.33131 1.36874,1.70916 16.01324,2.73036 20.34191,1.46849 3.47767,-1.0117 4.44109,-2.9813 4.27247,-0.0143 -0.32219,5.83516 -0.63647,10.8858 -1.10118,16.36552"
   style="fill:#ffffff" /><path
   id="path274"
   inkscape:connector-curvature="0"
   d="m 424.92991,233.85737 c -0.46786,5.47971 0.73385,16.38293 2.41926,22.89968 1.68144,6.51518 3.94711,12.47542 5.80111,15.71717 1.86193,3.24255 5.32534,5.03165 9.11491,6.07662 3.78483,1.04495 7.89817,1.34498 11.0481,1.61414 3.14913,0.26758 6.54367,0.89772 9.71656,0.73622 3.17605,-0.16069 6.12885,-1.11145 8.40242,-4.00489 2.27043,-2.89184 3.85925,-7.72954 4.99684,-13.21085 1.13756,-5.4805 1.82313,-11.61014 2.29019,-17.08828 0.93096,-10.95863 -5.32692,-28.80531 -8.84338,-36.33615 -3.64707,-10.42746 -13.1475,-19.2067 -20.07117,-22.43184 -6.92128,-3.22433 -10.56362,-3.29559 -17.2949,-1.49699 -6.72813,1.80019 -15.36251,2.73353 -18.43169,7.38123 -0.76869,1.16292 -0.13769,1.02121 -1.31649,2.44932 -1.17876,1.42812 -0.1805,0.99904 -1.19776,2.54433 0.69269,2.24351 -10.59527,16.49138 -10.1472,17.33131 1.36874,1.70916 16.01324,2.73036 20.34191,1.46849 3.47767,-1.0117 4.44109,-2.9813 4.27247,-0.0143 -0.32219,5.83516 -0.63647,10.8858 -1.10118,16.36552 z"
   style="fill:none;stroke:#292929;stroke-width:3.16654944;stroke-linecap:square;stroke-linejoin:round" /><path
   id="path278"
   inkscape:connector-curvature="0"
   d="m 462.85806,280.57267 c -0.18445,0.64994 -0.47182,0.11957 -0.70773,0.17892 -0.23671,0.061 -0.59136,0.75443 -0.70771,0.1797 -0.30558,-1.51916 0.0491,-4.64928 0.4726,-7.40498 0.42747,-2.7541 0.39424,-4.99365 0.93175,-5.12743 0.53673,-0.13465 0.2462,2.1857 0.37207,4.7989 0.1251,2.61478 0.12589,5.65942 -0.36098,7.37489"
   style="fill:#292929" /><path
   id="path282"
   inkscape:connector-curvature="0"
   d="m 453.94897,279.81429 c -0.18366,0.65388 -0.47024,0.12031 -0.70852,0.18128 -0.2351,0.0587 -0.59055,0.75444 -0.70613,0.1797 -0.30399,-1.51916 0.0467,-4.65087 0.4726,-7.40497 0.4267,-2.7541 0.39424,-4.99286 0.93177,-5.12823 0.53514,-0.13386 0.24619,2.18888 0.37206,4.7997 0.1219,2.61319 0.12351,5.65782 -0.36178,7.37252"
   style="fill:#292929" /><path
   id="path286"
   inkscape:connector-curvature="0"
   d="m 441.84247,277.91437 c -0.22879,0.51772 -0.3784,0.0355 -0.56287,0.0507 -0.19157,0.0165 -0.55572,0.54702 -0.56917,0.0523 -0.0254,-1.30066 0.66575,-3.845 1.36715,-6.06869 0.69901,-2.22609 0.97926,-4.08168 1.40595,-4.12206 0.42986,-0.0403 -0.11014,1.84292 -0.36732,4.02628 -0.25728,2.18333 -0.66894,4.70547 -1.27374,6.06156"
   style="fill:#292929" /><path
   id="path290"
   inkscape:connector-curvature="0"
   d="m 218.92213,128.22919 c 0.8621,-3.08739 5.58263,-3.6265 8.77056,-3.94077 17.68121,-1.74793 51.94723,11.91177 51.94723,11.91177 l -12.45324,5.18126 -9.8535,4.94615 -9.74506,7.23319 -7.71926,6.6458 c 0,8e-4 -24.6318,-18.77051 -20.94673,-31.9774"
   style="fill:#ffffff" /><path
   id="path294"
   inkscape:connector-curvature="0"
   d="m 218.92213,128.22919 c 0.8621,-3.08739 5.58263,-3.6265 8.77056,-3.94077 17.68121,-1.74793 51.94723,11.91177 51.94723,11.91177 l -12.45324,5.18126 -9.8535,4.94615 -9.74506,7.23319 -7.71926,6.6458 c 0,8e-4 -24.6318,-18.77051 -20.94673,-31.9774 z"
   style="fill:none;stroke:#292929;stroke-width:3.16654944;stroke-linecap:square;stroke-linejoin:round" /><path
   id="path298"
   inkscape:connector-curvature="0"
   d="m 427.19242,145.92624 c -0.32853,-3.1895 -4.88916,-4.51708 -7.98049,-5.36333 -17.12945,-4.7055 -53.21149,2.97655 -53.21149,2.97655 l 11.40195,7.20706 8.87584,6.53893 8.38502,8.77372 6.48667,7.85383 c 10e-4,-7.9e-4 27.44766,-14.34684 26.0425,-27.98676"
   style="fill:#ffffff" /><path
   id="path302"
   inkscape:connector-curvature="0"
   d="m 427.19242,145.92624 c -0.32853,-3.1895 -4.88916,-4.51708 -7.98049,-5.36333 -17.12945,-4.7055 -53.21149,2.97655 -53.21149,2.97655 l 11.40195,7.20706 8.87584,6.53893 8.38502,8.77372 6.48667,7.85383 c 10e-4,-7.9e-4 27.44766,-14.34684 26.0425,-27.98676 z"
   style="fill:none;stroke:#292929;stroke-width:3.16654944;stroke-linecap:square;stroke-linejoin:round" /><path
   id="path306"
   inkscape:connector-curvature="0"
   d="m 312.22847,195.62919 c 1.52074,-1.28482 3.96927,0.33724 5.94995,0.50428 1.98385,0.16863 4.6675,-1.0141 5.95152,0.50586 1.91339,2.26725 1.14551,6.58088 -0.74097,8.87107 -1.32361,1.60704 -6.00932,1.70521 -6.00932,1.70521 0,0 -4.7989,-0.69032 -5.90085,-2.52375 -1.56349,-2.59656 -1.56666,-7.10654 0.74967,-9.06267"
   style="fill:#292a2a" /><path
   id="path310"
   inkscape:connector-curvature="0"
   d="m 312.22847,195.62919 c 1.52074,-1.28482 3.96927,0.33724 5.94995,0.50428 1.98385,0.16863 4.6675,-1.0141 5.95152,0.50586 1.91339,2.26725 1.14551,6.58088 -0.74097,8.87107 -1.32361,1.60704 -6.00932,1.70521 -6.00932,1.70521 0,0 -4.7989,-0.69032 -5.90085,-2.52375 -1.56349,-2.59656 -1.56666,-7.10654 0.74967,-9.06267 z"
   style="fill:none;stroke:#292a2a;stroke-width:0.94521505;stroke-linecap:square;stroke-linejoin:round" /><path
   id="path314"
   inkscape:connector-curvature="0"
   d="m 316.82788,202.05096 -1.12966,15.97524 c -2.19046,1.5809 -1.17796,5.11002 -3.15626,6.71703 -0.90723,0.73702 -2.32741,0.33409 -3.48874,0.23196 -1.48828,-0.13226 -2.99161,-0.45122 -4.34847,-1.07029 -1.0418,-0.47261 -2.28862,-0.95631 -2.80953,-1.97672 -1.17477,-2.30128 -1.92289,-4.13076 -1.92289,-4.13076"
   style="fill:none;stroke:#292929;stroke-width:1.90151274" /><path
   id="path318"
   inkscape:connector-curvature="0"
   d="m 318.47448,202.19108 -1.58247,15.93723 c 1.89202,1.92843 0.30477,5.23668 1.97909,7.15324 0.76472,0.87873 2.23875,0.72119 3.40088,0.81698 1.48826,0.1219 3.02009,0.0603 4.4672,-0.32141 1.10672,-0.28975 2.41846,-0.55573 3.10242,-1.47404 1.54608,-2.07013 2.59182,-3.74681 2.59182,-3.74681"
   style="fill:none;stroke:#292929;stroke-width:1.90151274" /><path
   id="path322"
   inkscape:connector-curvature="0"
   d="m 314.47909,211.51259 c -17.74059,-7.39467 -17.96382,-7.52924 -17.96382,-7.52924"
   style="fill:none;stroke:#292929;stroke-width:0.79163736" /><path
   id="path326"
   inkscape:connector-curvature="0"
   d="m 313.9194,213.93897 c -13.23459,-3.59877 -13.71194,-3.5204 -13.71194,-3.5204"
   style="fill:none;stroke:#292929;stroke-width:0.79163736" /><path
   id="path330"
   inkscape:connector-curvature="0"
   d="m 314.11256,215.8389 -19.83685,-0.74415"
   style="fill:none;stroke:#292929;stroke-width:0.79163736" /><path
   id="path334"
   inkscape:connector-curvature="0"
   d="m 318.9748,211.89496 c 18.7341,-4.29462 18.97714,-4.392 18.97714,-4.392"
   style="fill:none;stroke:#292929;stroke-width:0.79163736" /><path
   id="path338"
   inkscape:connector-curvature="0"
   d="m 319.11651,214.37991 c 13.65337,-1.31411 14.10856,-1.15579 14.10856,-1.15579"
   style="fill:none;stroke:#292929;stroke-width:0.79163736" /><path
   id="path342"
   inkscape:connector-curvature="0"
   d="m 318.60748,216.22047 19.67456,2.61399"
   style="fill:none;stroke:#292929;stroke-width:0.79163736" /><path
   id="path346"
   inkscape:connector-curvature="0"
   d="m 206.89795,197.76108 c 0.39106,0.32378 0.39503,-0.0333 0.59294,-0.053 0.19712,-0.0159 0.73147,0.29528 0.59295,-0.0515 -0.36655,-0.9096 -1.84612,-2.57837 -3.23465,-4.01916 -1.38774,-1.44078 -2.23636,-2.69315 -2.68523,-2.65436 -0.44807,0.0387 0.66894,1.26821 1.59675,2.74936 0.92461,1.48194 2.1089,3.17684 3.13724,4.02865"
   style="fill:#292929" /><path
   id="path350"
   inkscape:connector-curvature="0"
   d="m 426.09283,216.38672 c -0.44014,0.25333 -0.38077,-0.10132 -0.57631,-0.15201 -0.19552,-0.0507 -0.77183,0.16545 -0.57551,-0.15282 0.51298,-0.83362 2.25615,-2.22926 3.86794,-3.41513 1.61019,-1.18667 2.65594,-2.27834 3.09371,-2.16434 0.43539,0.11467 -0.87397,1.13836 -2.03768,2.44219 -1.16291,1.30542 -2.61557,2.77548 -3.77215,3.44205"
   style="fill:#292929" /><g
   id="g354">
												</g><g
   id="g317"
   transform="matrix(0.79163735,0,0,0.79163735,63.608425,17.321595)">
													<g
   id="g319">
														<g
   id="g321">
															<g
   id="g352">
																<g
   id="g360">
																	<defs
   id="defs325">
																		
																			<rect
   id="SVGID_27_"
   x="255.054"
   y="160.662"
   transform="matrix(-0.9998,0.021,-0.021,-0.9998,575.1016,384.9055)"
   width="60.950001"
   height="69.623001" />
																	</defs>
																	<clipPath
   id="SVGID_28_">
																		<use
   xlink:href="#SVGID_27_"
   overflow="visible"
   id="use329"
   style="overflow:visible"
   x="0"
   y="0"
   width="625"
   height="625" />
																	</clipPath>
																	<g
   id="g362"
   clip-path="url(#SVGID_28_)"
   style="opacity:0.481">
																		<g
   id="g364"
   transform="translate(252.2881,342.0752)">
																			<path
   id="path366"
   inkscape:connector-curvature="0"
   d="m 62.931,-144.09 c -1.592,18.828 -16.175,32.971 -32.569,31.586 -16.394,-1.386 -28.393,-17.771 -26.799,-36.6 10e-4,-0.011 0.002,-0.021 0.002,-0.03 1.592,-18.83 16.172,-32.971 32.566,-31.586 16.396,1.385 28.396,17.772 26.801,36.6 0,0.01 0,0.02 -0.001,0.03"
   style="fill:#2f7fc1" />
																		</g>
																		<g
   id="g368"
   transform="translate(252.2881,342.0752)">
																			
																				<path
   id="path370"
   inkscape:connector-curvature="0"
   d="m 62.931,-144.09 c -1.592,18.828 -16.175,32.971 -32.569,31.586 -16.394,-1.386 -28.393,-17.771 -26.799,-36.6 10e-4,-0.011 0.002,-0.021 0.002,-0.03 1.592,-18.83 16.172,-32.971 32.566,-31.586 16.396,1.385 28.396,17.772 26.801,36.6 0,0.01 0,0.02 -0.001,0.03 z"
   style="fill:none;stroke:#b6b6b6;stroke-linecap:square;stroke-linejoin:round" />
																		</g>
																	</g>
																</g>
															</g>
															<g
   id="g372"
   transform="translate(246.6851,342.5249)">
																<path
   id="path374"
   inkscape:connector-curvature="0"
   d="m 61.519,-144.955 c -1.349,15.937 -13.616,27.914 -27.399,26.75 -13.786,-1.166 -23.867,-15.028 -22.52,-30.965 0,-0.009 0.001,-0.018 0.003,-0.026 1.348,-15.938 13.615,-27.912 27.399,-26.748 13.785,1.165 23.867,15.029 22.52,30.965 0,0.006 -0.002,0.015 -0.003,0.024"
   style="fill:#ffffff" />
															</g>
															<g
   id="g376"
   transform="translate(246.6851,342.5249)">
																
																	<path
   id="path378"
   inkscape:connector-curvature="0"
   d="m 61.519,-144.955 c -1.349,15.937 -13.616,27.914 -27.399,26.75 -13.786,-1.166 -23.867,-15.028 -22.52,-30.965 0,-0.009 0.001,-0.018 0.003,-0.026 1.348,-15.938 13.615,-27.912 27.399,-26.748 13.785,1.165 23.867,15.029 22.52,30.965 0,0.006 -0.002,0.015 -0.003,0.024 z"
   style="fill:none;stroke:#b6b6b6;stroke-linecap:square;stroke-linejoin:round" />
															</g>
															<g
   id="g380"
   transform="translate(230.9175,355.0171)">
																<path
   id="path382"
   inkscape:connector-curvature="0"
   d="m 57.254,-172.646 c -8.983,-0.761 -16.966,7 -17.845,17.337 -0.386,4.54 0.66,8.816 2.716,12.256 0.33,-0.06 0.677,-0.08 1.028,-0.052 2.028,0.172 3.522,1.866 3.36,3.77 -0.03,0.356 -0.11,0.688 -0.245,1.003 2.234,1.744 4.891,2.875 7.803,3.122 8.984,0.762 16.987,-6.996 17.866,-17.333 0.237,-2.774 -0.066,-5.455 -0.804,-7.902 -1.233,1.49 -3.217,2.363 -5.363,2.182 -3.389,-0.289 -5.911,-3.125 -5.638,-6.343 0.217,-2.567 2.159,-4.582 4.649,-5.154 -2.172,-1.623 -4.735,-2.648 -7.527,-2.886"
   style="fill:#292929" />
															</g>
															<g
   id="g384"
   transform="translate(230.9175,355.0171)">
																
																	<path
   id="path386"
   inkscape:connector-curvature="0"
   d="m 57.254,-172.646 c -8.983,-0.761 -16.966,7 -17.845,17.337 -0.386,4.54 0.66,8.816 2.716,12.256 0.33,-0.06 0.677,-0.08 1.028,-0.052 2.028,0.172 3.522,1.866 3.36,3.77 -0.03,0.356 -0.11,0.688 -0.245,1.003 2.234,1.744 4.891,2.875 7.803,3.122 8.984,0.762 16.987,-6.996 17.866,-17.333 0.237,-2.774 -0.066,-5.455 -0.804,-7.902 -1.233,1.49 -3.217,2.363 -5.363,2.182 -3.389,-0.289 -5.911,-3.125 -5.638,-6.343 0.217,-2.567 2.159,-4.582 4.649,-5.154 -2.172,-1.623 -4.735,-2.648 -7.527,-2.886 z"
   style="fill:none;stroke:#292a2a;stroke-width:4;stroke-linecap:square;stroke-linejoin:round" />
															</g>
															<g
   id="g344">
																<g
   id="g390">
																</g>
																<g
   id="g347">
																	<g
   id="g349">
																		<g
   id="g190">
																			<g
   id="g388">
																				<g
   id="g396">
																					<defs
   id="defs354">
																						
																							<rect
   id="SVGID_29_"
   x="330.08099"
   y="167.035"
   transform="matrix(-0.9998,0.021,-0.021,-0.9998,725.27,396.0767)"
   width="60.950001"
   height="69.623001" />
																					</defs>
																					<clipPath
   id="SVGID_30_">
																						<use
   xlink:href="#SVGID_29_"
   overflow="visible"
   id="use358"
   style="overflow:visible"
   x="0"
   y="0"
   width="625"
   height="625" />
																					</clipPath>
																					<g
   id="g398"
   clip-path="url(#SVGID_30_)"
   style="opacity:0.481">
																						<g
   id="g400"
   transform="translate(264.79,340.748)">
																							<path
   id="path402"
   inkscape:connector-curvature="0"
   d="m 66.087,-141.433 c -1.608,18.827 10.379,35.229 26.772,36.627 16.393,1.401 30.98,-12.727 32.591,-31.554 10e-4,-0.009 0.002,-0.02 0.004,-0.029 1.604,-18.827 -10.384,-35.227 -26.773,-36.628 -16.394,-1.401 -30.982,12.727 -32.594,31.555 10e-4,0.009 10e-4,0.02 0,0.029"
   style="fill:#2f7fc1" />
																						</g>
																						<g
   id="g404"
   transform="translate(264.79,340.748)">
																							
																								<path
   id="path406"
   inkscape:connector-curvature="0"
   d="m 66.087,-141.433 c -1.608,18.827 10.379,35.229 26.772,36.627 16.393,1.401 30.98,-12.727 32.591,-31.554 10e-4,-0.009 0.002,-0.02 0.004,-0.029 1.604,-18.827 -10.384,-35.227 -26.773,-36.628 -16.394,-1.401 -30.982,12.727 -32.594,31.555 10e-4,0.009 10e-4,0.02 0,0.029 z"
   style="fill:none;stroke:#b6b6b6;stroke-linecap:square;stroke-linejoin:round" />
																						</g>
																					</g>
																				</g>
																			</g>
																			<g
   id="g408"
   transform="translate(270.3613,340.0132)">
																				<path
   id="path410"
   inkscape:connector-curvature="0"
   d="m 67.498,-139.925 c -1.358,15.937 8.709,29.812 22.496,30.989 13.782,1.177 26.057,-10.786 27.419,-26.72 0.001,-0.009 0.002,-0.018 0.003,-0.028 1.357,-15.934 -8.712,-29.808 -22.495,-30.986 -13.785,-1.179 -26.062,10.785 -27.421,26.721 0.002,0.009 0.001,0.018 -0.002,0.024"
   style="fill:#ffffff" />
																			</g>
																			<g
   id="g412"
   transform="translate(270.3613,340.0132)">
																				
																					<path
   id="path414"
   inkscape:connector-curvature="0"
   d="m 67.498,-139.925 c -1.358,15.937 8.709,29.812 22.496,30.989 13.782,1.177 26.057,-10.786 27.419,-26.72 0.001,-0.009 0.002,-0.018 0.003,-0.028 1.357,-15.934 -8.712,-29.808 -22.495,-30.986 -13.785,-1.179 -26.062,10.785 -27.421,26.721 0.002,0.009 0.001,0.018 -0.002,0.024 z"
   style="fill:none;stroke:#b6b6b6;stroke-linecap:square;stroke-linejoin:round" />
																			</g>
																			<g
   id="g416"
   transform="translate(288.3994,348.9155)">
																				<path
   id="path418"
   inkscape:connector-curvature="0"
   d="m 71.77,-160.426 c 8.985,0.763 15.547,9.76 14.666,20.098 -0.385,4.542 -2.137,8.58 -4.75,11.622 -0.312,-0.114 -0.646,-0.193 -1.001,-0.224 -2.024,-0.172 -3.784,1.244 -3.945,3.148 -0.032,0.357 -0.013,0.696 0.067,1.03 -2.491,1.341 -5.304,2.008 -8.217,1.762 -8.981,-0.765 -15.562,-9.762 -14.684,-20.102 0.232,-2.771 0.983,-5.364 2.125,-7.651 0.966,1.675 2.771,2.873 4.917,3.055 3.39,0.29 6.354,-2.081 6.627,-5.299 0.219,-2.567 -1.354,-4.881 -3.713,-5.864 2.416,-1.234 5.116,-1.813 7.908,-1.575"
   style="fill:#292929" />
																			</g>
																			<g
   id="g420"
   transform="translate(288.3994,348.9155)">
																				
																					<path
   id="path422"
   inkscape:connector-curvature="0"
   d="m 71.77,-160.426 c 8.985,0.763 15.547,9.76 14.666,20.098 -0.385,4.542 -2.137,8.58 -4.75,11.622 -0.312,-0.114 -0.646,-0.193 -1.001,-0.224 -2.024,-0.172 -3.784,1.244 -3.945,3.148 -0.032,0.357 -0.013,0.696 0.067,1.03 -2.491,1.341 -5.304,2.008 -8.217,1.762 -8.981,-0.765 -15.562,-9.762 -14.684,-20.102 0.232,-2.771 0.983,-5.364 2.125,-7.651 0.966,1.675 2.771,2.873 4.917,3.055 3.39,0.29 6.354,-2.081 6.627,-5.299 0.219,-2.567 -1.354,-4.881 -3.713,-5.864 2.416,-1.234 5.116,-1.813 7.908,-1.575 z"
   style="fill:none;stroke:#292a2a;stroke-width:4;stroke-linecap:square;stroke-linejoin:round" />
																			</g>
																		</g>
																	</g>
																</g>
															</g>
														</g>
													</g>
												</g><g
   enable-background="new    "
   id="g373"
   transform="matrix(1.1311058,0,0,1.1311058,-39.928249,-7.8355845)">
													<path
   d="m 68.761,33.291 h 5.328 V 57.846 H 99.291 V 33.291 h 5.329 V 86 H 99.291 V 63.174 H 74.089 V 86 H 68.761 V 33.291 z"
   id="path375"
   inkscape:connector-curvature="0"
   style="fill:#1f5698" />
													<path
   d="m 127.008,33.291 13.609,27.65 15.049,-27.65 h 5.833 L 143.281,67.278 V 86 h -5.329 V 67.278 L 121.175,33.291 h 5.833 z"
   id="path377"
   inkscape:connector-curvature="0"
   style="fill:#1f5698" />
													<path
   d="m 176.614,33.291 h 21.674 c 5.688,0 12.601,2.377 12.601,15.266 0,15.05 -7.272,15.985 -12.601,15.985 -2.88,0 -15.985,-1.224 -16.345,-1.44 V 86 h -5.329 V 33.291 z m 21.674,25.923 c 3.745,0 7.201,-1.08 7.201,-10.657 -0.144,-9.433 -4.68,-9.864 -7.201,-9.864 h -16.345 v 20.521 h 16.345 z"
   id="path379"
   inkscape:connector-curvature="0"
   style="fill:#1f5698" />
													<path
   d="m 228.887,42.652 c 0,-7.057 4.248,-9.577 9.073,-9.361 l 22.754,1.152 V 38.62 H 237.96 c -3.745,0 -3.745,2.088 -3.745,4.032 v 14.401 l 23.618,0.72 v 4.248 l -23.618,0.721 v 14.401 c 0.072,3.816 2.376,3.744 4.464,3.744 h 22.034 v 4.104 l -22.034,1.224 c -4.752,0.288 -9.792,-0.936 -9.792,-9.072 V 42.652 z"
   id="path381"
   inkscape:connector-curvature="0"
   style="fill:#1f5698" />
													<path
   d="m 277.269,33.291 h 22.466 c 6.841,0 12.169,3.889 12.169,15.842 0,13.682 -7.129,14.833 -9.145,15.121 L 313.849,86 h -5.761 L 296.999,64.47 282.598,63.462 V 86 h -5.329 V 33.291 z m 22.466,25.419 c 3.312,0 6.769,0 6.769,-9.577 0,-9.433 -3.6,-10.44 -6.769,-10.44 H 282.598 V 58.71 h 17.137 z"
   id="path383"
   inkscape:connector-curvature="0"
   style="fill:#1f5698" />
												</g><g
   enable-background="new    "
   id="g385"
   transform="matrix(1.1311058,0,0,1.1311058,-39.928249,-7.8355845)">
													<path
   d="m 339.405,33.291 h 5.328 v 23.618 h 5.905 l 16.561,-23.618 h 6.48 L 355.533,59.573 373.68,86 H 367.2 L 350.639,62.238 h -5.833 V 86 h -5.4 V 33.291 z"
   id="path387"
   inkscape:connector-curvature="0"
   style="fill:#3db9eb" />
													<path
   d="m 390.956,33.291 h 5.329 V 86 h -5.329 V 33.291 z"
   id="path389"
   inkscape:connector-curvature="0"
   style="fill:#3db9eb" />
													<path
   d="m 412.844,33.291 h 36.578 V 38.62 H 433.581 V 86 h -5.329 V 38.62 h -15.408 v -5.329 z"
   id="path391"
   inkscape:connector-curvature="0"
   style="fill:#3db9eb" />
													<path
   d="m 463.458,33.291 h 36.579 V 38.62 H 484.195 V 86 h -5.328 V 38.62 h -15.409 v -5.329 z"
   id="path393"
   inkscape:connector-curvature="0"
   style="fill:#3db9eb" />
													<path
   d="m 519.906,33.291 13.609,27.65 15.049,-27.65 h 5.832 L 536.18,67.278 V 86 h -5.329 V 67.278 L 514.074,33.291 h 5.832 z"
   id="path395"
   inkscape:connector-curvature="0"
   style="fill:#3db9eb" />
												</g>
</svg>