<?xml version="1.0" encoding="UTF-8" standalone="no"?>
<!-- Generator: Adobe Illustrator 16.0.0, SVG Export Plug-In . SVG Version: 6.00 Build 0)  -->

<svg
   xmlns:dc="http://purl.org/dc/elements/1.1/"
   xmlns:cc="http://creativecommons.org/ns#"
   xmlns:rdf="http://www.w3.org/1999/02/22-rdf-syntax-ns#"
   xmlns:svg="http://www.w3.org/2000/svg"
   xmlns="http://www.w3.org/2000/svg"
   xmlns:xlink="http://www.w3.org/1999/xlink"
   xmlns:sodipodi="http://sodipodi.sourceforge.net/DTD/sodipodi-0.dtd"
   xmlns:inkscape="http://www.inkscape.org/namespaces/inkscape"
   version="1.1"
   id="svg2"
   x="0px"
   y="0px"
   width="290"
   height="290"
   viewBox="0 0 290 290.00001"
   enable-background="new 0 0 625 625"
   xml:space="preserve"
   inkscape:version="0.48.3.1 r9886"
   sodipodi:docname="hyperkitty-favicon.svg"
   inkscape:export-filename="/home/gauret/fedora/hk/hyperkitty/hyperkitty/static/img/favicon.png"
   inkscape:export-xdpi="4.965517"
   inkscape:export-ydpi="4.965517"><metadata
   id="metadata401"><rdf:RDF><cc:Work
       rdf:about=""><dc:format>image/svg+xml</dc:format><dc:type
         rdf:resource="http://purl.org/dc/dcmitype/StillImage" /><dc:title></dc:title></cc:Work></rdf:RDF></metadata><defs
   id="defs399">
	

		
	
			
			
		
				
			
					<defs
   id="defs233">
						<rect
   height="625"
   width="625"
   y="0.583"
   x="0.667"
   id="SVGID_19_" />
					</defs>
					<clipPath
   id="SVGID_20_">
						<use
   height="625"
   width="625"
   y="0"
   x="0"
   style="overflow:visible"
   id="use237"
   overflow="visible"
   xlink:href="#SVGID_19_" />
					</clipPath>
					
				
						
					
							
							
						
								
							
								
							
									<defs
   id="defs261">
										<rect
   height="625"
   width="625"
   y="0.583"
   x="0.667"
   id="SVGID_23_" />
									</defs>
									<clipPath
   id="SVGID_24_">
										<use
   height="625"
   width="625"
   y="0"
   x="0"
   style="overflow:visible"
   id="use265"
   overflow="visible"
   xlink:href="#SVGID_23_" />
									</clipPath>
									
								
										
									
											
										
												
												
												
												
												
												
													
												
												
												
												
												
													
												
												
												
												
												
													
												
												
													
												
												
													
												
												
												
												
												
												
												
												
												
												
												
												
												
												
											
													
												
													<defs
   id="defs274">
														
															<rect
   height="104.666"
   width="99.107002"
   transform="matrix(-0.9998,0.021,-0.021,-0.9998,948.5114,559.5722)"
   y="232.433"
   x="421.76401"
   id="SVGID_25_" />
													</defs>
													<clipPath
   id="SVGID_26_">
														<use
   height="625"
   width="625"
   y="0"
   x="0"
   style="overflow:visible"
   id="use278"
   overflow="visible"
   xlink:href="#SVGID_25_" />
													</clipPath>
													
												
									<defs
   id="defs245">
										<rect
   height="94.366997"
   width="109.49"
   y="208.127"
   x="107.312"
   id="SVGID_21_" />
									</defs>
									<clipPath
   id="SVGID_22_">
										<use
   height="625"
   width="625"
   y="0"
   x="0"
   style="overflow:visible"
   id="use249"
   overflow="visible"
   xlink:href="#SVGID_21_" />
									</clipPath>
									
								
	

	

	

	

	

	

	

	

														
													
														
														
													
										
										
									
		
	</defs><sodipodi:namedview
   pagecolor="#ffffff"
   bordercolor="#666666"
   borderopacity="1"
   objecttolerance="10"
   gridtolerance="10"
   guidetolerance="10"
   inkscape:pageopacity="0"
   inkscape:pageshadow="2"
   inkscape:window-width="1280"
   inkscape:window-height="913"
   id="namedview397"
   showgrid="false"
   inkscape:zoom="1.5104"
   inkscape:cx="110.71481"
   inkscape:cy="102.06454"
   inkscape:window-x="374"
   inkscape:window-y="75"
   inkscape:window-maximized="0"
   inkscape:current-layer="svg2"
   fit-margin-top="0"
   fit-margin-left="0"
   fit-margin-right="0"
   fit-margin-bottom="0" />








<g
   id="g218"
   transform="translate(-182.59778,6.630684)">
				<g
   id="g220">
					<defs
   id="defs222">
						<rect
   height="625"
   width="625"
   y="0.583"
   x="0.667"
   id="SVGID_17_" />
					</defs>
					<clipPath
   id="SVGID_18_">
						<use
   height="625"
   width="625"
   y="0"
   x="0"
   style="overflow:visible"
   id="use226"
   overflow="visible"
   xlink:href="#SVGID_17_" />
					</clipPath>
					<g
   clip-path="url(#SVGID_18_)"
   id="g198">
					</g>
				</g>
			</g><g
   id="g354"
   transform="translate(-182.59778,6.630684)">
												</g><path
   id="path246"
   inkscape:connector-curvature="0"
   d="m 139.25172,249.28343 c 7.89709,1.35686 15.96564,-0.31332 23.58629,-3.22617 7.61529,-2.91283 14.88983,-7.0418 22.2758,-10.76186 15.14486,-7.62332 30.88441,-13.55522 45.456,-22.74516 9.59974,-6.05272 18.76444,-13.63887 25.6361,-23.91349 5.07686,-7.58747 8.81217,-16.54773 10.86305,-26.0722 0.0696,-8.56861 -2.03802,-17.14252 -5.94907,-24.2069 -1.85051,-3.33771 -4.07499,-6.32092 -6.22446,-9.37184 -6.54269,-9.2935 -12.4339,-19.31852 -19.54664,-27.95218 -7.04953,-8.565947 -15.20058,-15.639617 -23.63987,-21.992387 -10.75055,-8.09197 -22.05293,-15.08466 -33.82786,-20.567827 -10.21694,-4.75959 -20.77676,-8.378745 -31.51874,-10.796381 -10.9145,0.138075 -21.81613,1.496252 -32.53668,4.051964 -12.35247,2.944707 -24.444568,7.475957 -36.14341,13.202064 -9.186131,4.49673 -18.178332,9.76614 -26.294009,16.7336 -8.184267,7.02323 -15.359157,15.67016 -23.074099,23.462087 -2.533071,2.55969 -5.131504,5.03575 -7.408479,7.9393 -4.820765,6.14566 -8.065329,14.15665 -9.165781,22.61639 0.727568,9.81659 3.186704,19.4274 7.158826,27.96811 5.375801,11.56773 13.373621,20.95681 22.013286,28.93063 13.108964,12.10145 27.814497,21.24094 41.706751,31.92315 6.775213,5.20834 13.377906,10.79904 20.491735,15.26522 7.11274,4.46221 14.83839,7.79724 22.80621,8.10791 2.25555,0.0889 4.02998,1.52945 6.26624,1.13115 2.14303,0.85766 4.8347,-0.10754 7.06881,0.27482"
   style="fill:#ffffff;stroke:#292929;stroke-width:4.7709012" /><path
   id="path290"
   inkscape:connector-curvature="0"
   d="M 4.2670945,47.106149 C 5.4339778,41.928346 11.823446,41.024221 16.138453,40.497148 40.070834,37.565714 86.451541,60.474176 86.451541,60.474176 l -16.856069,8.689417 -13.337198,8.2951 -13.190399,12.13067 -10.448385,11.145547 c 0,0.001 -33.34032138,-31.479717 -28.3523955,-53.628761"
   style="fill:#ffffff" /><path
   id="path294"
   inkscape:connector-curvature="0"
   d="M 4.2670945,47.106149 C 5.4339778,41.928346 11.823446,41.024221 16.138453,40.497148 40.070834,37.565714 86.451541,60.474176 86.451541,60.474176 l -16.856069,8.689417 -13.337198,8.2951 -13.190399,12.13067 -10.448385,11.145547 c 0,0.001 -33.34032138,-31.479717 -28.3523955,-53.628761 z"
   style="fill:none;stroke:#292929;stroke-width:4.7709012;stroke-linecap:square;stroke-linejoin:round" /><path
   id="path298"
   inkscape:connector-curvature="0"
   d="m 286.17093,76.785583 c -0.44467,-5.34907 -6.6177,-7.57553 -10.80197,-8.99477 -23.18554,-7.891507 -72.02432,4.99193 -72.02432,4.99193 l 15.4331,12.08685 12.01387,10.96632 11.34953,14.714257 8.78003,13.17154 c 0.003,-0.001 37.15171,-24.060857 35.24976,-46.936127"
   style="fill:#ffffff" /><path
   id="path302"
   inkscape:connector-curvature="0"
   d="m 286.17093,76.785583 c -0.44467,-5.34907 -6.6177,-7.57553 -10.80197,-8.99477 -23.18554,-7.891507 -72.02432,4.99193 -72.02432,4.99193 l 15.4331,12.08685 12.01387,10.96632 11.34953,14.714257 8.78003,13.17154 c 0.003,-0.001 37.15171,-24.060857 35.24976,-46.936127 z"
   style="fill:none;stroke:#292929;stroke-width:4.7709012;stroke-linecap:square;stroke-linejoin:round" /><path
   id="path306"
   inkscape:connector-curvature="0"
   d="m 130.56171,160.1416 c 2.05839,-2.15476 5.37259,0.56557 8.05353,0.84571 2.68522,0.28278 6.31768,-1.70071 8.05568,0.84836 2.58987,3.80237 1.55049,11.03666 -1.00294,14.87753 -1.79158,2.69511 -8.1339,2.85974 -8.1339,2.85974 0,0 -6.49555,-1.1577 -7.9871,-4.23252 -2.11625,-4.35467 -2.12054,-11.91822 1.01473,-15.19883"
   style="fill:#292a2a" /><path
   id="path310"
   inkscape:connector-curvature="0"
   d="m 130.56171,160.1416 c 2.05839,-2.15476 5.37259,0.56557 8.05353,0.84571 2.68522,0.28278 6.31768,-1.70071 8.05568,0.84836 2.58987,3.80237 1.55049,11.03666 -1.00294,14.87753 -1.79158,2.69511 -8.1339,2.85974 -8.1339,2.85974 0,0 -6.49555,-1.1577 -7.9871,-4.23252 -2.11625,-4.35467 -2.12054,-11.91822 1.01473,-15.19883 z"
   style="fill:none;stroke:#292a2a;stroke-width:1.42411399;stroke-linecap:square;stroke-linejoin:round" /><path
   id="path314"
   inkscape:connector-curvature="0"
   d="m 136.78723,170.91141 -1.52906,26.79182 c -2.96489,2.65129 -1.59442,8.56993 -4.27215,11.26504 -1.22795,1.23604 -3.15025,0.56027 -4.72219,0.389 -2.01444,-0.22172 -4.04926,-0.75677 -5.88584,-1.79497 -1.41012,-0.7926 -3.09777,-1.60379 -3.80283,-3.31513 -1.59012,-3.85946 -2.60272,-6.92763 -2.60272,-6.92763"
   style="fill:none;stroke:#292929;stroke-width:2.86492634" /><path
   id="path318"
   inkscape:connector-curvature="0"
   d="m 139.01598,171.1464 -2.14196,26.72809 c 2.56093,3.23413 0.41254,8.78236 2.6788,11.99657 1.03509,1.47368 3.03026,1.20948 4.60325,1.37012 2.01446,0.20446 4.08784,0.1009 6.04658,-0.53902 1.49799,-0.48592 3.27349,-0.932 4.19928,-2.47207 2.09269,-3.47178 3.50816,-6.28373 3.50816,-6.28373"
   style="fill:none;stroke:#292929;stroke-width:2.86492634" /><path
   id="path322"
   inkscape:connector-curvature="0"
   d="m 133.60803,186.77938 c -24.01274,-12.4015 -24.31492,-12.6272 -24.31492,-12.6272"
   style="fill:none;stroke:#292929;stroke-width:1.1927253" /><path
   id="path326"
   inkscape:connector-curvature="0"
   d="m 132.85047,190.8486 c -17.91366,-6.03546 -18.55979,-5.90402 -18.55979,-5.90402"
   style="fill:none;stroke:#292929;stroke-width:1.1927253" /><path
   id="path330"
   inkscape:connector-curvature="0"
   d="m 133.11192,194.03495 -26.85013,-1.24798"
   style="fill:none;stroke:#292929;stroke-width:1.1927253" /><path
   id="path334"
   inkscape:connector-curvature="0"
   d="m 139.69318,187.42064 c 25.35751,-7.20245 25.68647,-7.36575 25.68647,-7.36575"
   style="fill:none;stroke:#292929;stroke-width:1.1927253" /><path
   id="path338"
   inkscape:connector-curvature="0"
   d="m 139.885,191.5881 c 18.48049,-2.20388 19.09661,-1.93836 19.09661,-1.93836"
   style="fill:none;stroke:#292929;stroke-width:1.1927253" /><path
   id="path342"
   inkscape:connector-curvature="0"
   d="m 139.196,194.67487 26.63047,4.38387"
   style="fill:none;stroke:#292929;stroke-width:1.1927253" /><g
   id="g321"
   transform="matrix(1.0715192,0,0,1.3276419,-205.95748,-138.89515)">
															<g
   id="g352">
																<g
   id="g360">
																	<defs
   id="defs325">
																		
																			<rect
   id="SVGID_27_"
   x="255.054"
   y="160.662"
   transform="matrix(-0.9998,0.021,-0.021,-0.9998,575.1016,384.9055)"
   width="60.950001"
   height="69.623001" />
																	</defs>
																	<clipPath
   id="SVGID_28_">
																		<use
   xlink:href="#SVGID_27_"
   overflow="visible"
   id="use329"
   style="overflow:visible"
   x="0"
   y="0"
   width="625"
   height="625" />
																	</clipPath>
																	<g
   id="g362"
   clip-path="url(#SVGID_28_)"
   style="opacity:0.481">
																		<g
   id="g364"
   transform="translate(252.2881,342.0752)">
																			<path
   id="path366"
   inkscape:connector-curvature="0"
   d="m 62.931,-144.09 c -1.592,18.828 -16.175,32.971 -32.569,31.586 -16.394,-1.386 -28.393,-17.771 -26.799,-36.6 10e-4,-0.011 0.002,-0.021 0.002,-0.03 1.592,-18.83 16.172,-32.971 32.566,-31.586 16.396,1.385 28.396,17.772 26.801,36.6 0,0.01 0,0.02 -0.001,0.03"
   style="fill:#2f7fc1" />
																		</g>
																		<g
   id="g368"
   transform="translate(252.2881,342.0752)">
																			
																				<path
   id="path370"
   inkscape:connector-curvature="0"
   d="m 62.931,-144.09 c -1.592,18.828 -16.175,32.971 -32.569,31.586 -16.394,-1.386 -28.393,-17.771 -26.799,-36.6 10e-4,-0.011 0.002,-0.021 0.002,-0.03 1.592,-18.83 16.172,-32.971 32.566,-31.586 16.396,1.385 28.396,17.772 26.801,36.6 0,0.01 0,0.02 -0.001,0.03 z"
   style="fill:none;stroke:#b6b6b6;stroke-linecap:square;stroke-linejoin:round" />
																		</g>
																	</g>
																</g>
															</g>
															<g
   id="g372"
   transform="translate(246.6851,342.5249)">
																<path
   id="path374"
   inkscape:connector-curvature="0"
   d="m 61.519,-144.955 c -1.349,15.937 -13.616,27.914 -27.399,26.75 -13.786,-1.166 -23.867,-15.028 -22.52,-30.965 0,-0.009 0.001,-0.018 0.003,-0.026 1.348,-15.938 13.615,-27.912 27.399,-26.748 13.785,1.165 23.867,15.029 22.52,30.965 0,0.006 -0.002,0.015 -0.003,0.024"
   style="fill:#ffffff" />
															</g>
															<g
   id="g376"
   transform="translate(246.6851,342.5249)">
																
																	<path
   id="path378"
   inkscape:connector-curvature="0"
   d="m 61.519,-144.955 c -1.349,15.937 -13.616,27.914 -27.399,26.75 -13.786,-1.166 -23.867,-15.028 -22.52,-30.965 0,-0.009 0.001,-0.018 0.003,-0.026 1.348,-15.938 13.615,-27.912 27.399,-26.748 13.785,1.165 23.867,15.029 22.52,30.965 0,0.006 -0.002,0.015 -0.003,0.024 z"
   style="fill:none;stroke:#b6b6b6;stroke-linecap:square;stroke-linejoin:round" />
															</g>
															<g
   id="g380"
   transform="translate(230.9175,355.0171)">
																<path
   id="path382"
   inkscape:connector-curvature="0"
   d="m 57.254,-172.646 c -8.983,-0.761 -16.966,7 -17.845,17.337 -0.386,4.54 0.66,8.816 2.716,12.256 0.33,-0.06 0.677,-0.08 1.028,-0.052 2.028,0.172 3.522,1.866 3.36,3.77 -0.03,0.356 -0.11,0.688 -0.245,1.003 2.234,1.744 4.891,2.875 7.803,3.122 8.984,0.762 16.987,-6.996 17.866,-17.333 0.237,-2.774 -0.066,-5.455 -0.804,-7.902 -1.233,1.49 -3.217,2.363 -5.363,2.182 -3.389,-0.289 -5.911,-3.125 -5.638,-6.343 0.217,-2.567 2.159,-4.582 4.649,-5.154 -2.172,-1.623 -4.735,-2.648 -7.527,-2.886"
   style="fill:#292929" />
															</g>
															<g
   id="g384"
   transform="translate(230.9175,355.0171)">
																
																	<path
   id="path386"
   inkscape:connector-curvature="0"
   d="m 57.254,-172.646 c -8.983,-0.761 -16.966,7 -17.845,17.337 -0.386,4.54 0.66,8.816 2.716,12.256 0.33,-0.06 0.677,-0.08 1.028,-0.052 2.028,0.172 3.522,1.866 3.36,3.77 -0.03,0.356 -0.11,0.688 -0.245,1.003 2.234,1.744 4.891,2.875 7.803,3.122 8.984,0.762 16.987,-6.996 17.866,-17.333 0.237,-2.774 -0.066,-5.455 -0.804,-7.902 -1.233,1.49 -3.217,2.363 -5.363,2.182 -3.389,-0.289 -5.911,-3.125 -5.638,-6.343 0.217,-2.567 2.159,-4.582 4.649,-5.154 -2.172,-1.623 -4.735,-2.648 -7.527,-2.886 z"
   style="fill:none;stroke:#292a2a;stroke-width:4;stroke-linecap:square;stroke-linejoin:round" />
															</g>
															<g
   id="g344">
																<g
   id="g390">
																</g>
																<g
   id="g347">
																	<g
   id="g349">
																		<g
   id="g190">
																			<g
   id="g388">
																				<g
   id="g396">
																					<defs
   id="defs354">
																						
																							<rect
   id="SVGID_29_"
   x="330.08099"
   y="167.035"
   transform="matrix(-0.9998,0.021,-0.021,-0.9998,725.27,396.0767)"
   width="60.950001"
   height="69.623001" />
																					</defs>
																					<clipPath
   id="SVGID_30_">
																						<use
   xlink:href="#SVGID_29_"
   overflow="visible"
   id="use358"
   style="overflow:visible"
   x="0"
   y="0"
   width="625"
   height="625" />
																					</clipPath>
																					<g
   id="g398"
   clip-path="url(#SVGID_30_)"
   style="opacity:0.481">
																						<g
   id="g400"
   transform="translate(264.79,340.748)">
																							<path
   id="path402"
   inkscape:connector-curvature="0"
   d="m 66.087,-141.433 c -1.608,18.827 10.379,35.229 26.772,36.627 16.393,1.401 30.98,-12.727 32.591,-31.554 10e-4,-0.009 0.002,-0.02 0.004,-0.029 1.604,-18.827 -10.384,-35.227 -26.773,-36.628 -16.394,-1.401 -30.982,12.727 -32.594,31.555 10e-4,0.009 10e-4,0.02 0,0.029"
   style="fill:#2f7fc1" />
																						</g>
																						<g
   id="g404"
   transform="translate(264.79,340.748)">
																							
																								<path
   id="path406"
   inkscape:connector-curvature="0"
   d="m 66.087,-141.433 c -1.608,18.827 10.379,35.229 26.772,36.627 16.393,1.401 30.98,-12.727 32.591,-31.554 10e-4,-0.009 0.002,-0.02 0.004,-0.029 1.604,-18.827 -10.384,-35.227 -26.773,-36.628 -16.394,-1.401 -30.982,12.727 -32.594,31.555 10e-4,0.009 10e-4,0.02 0,0.029 z"
   style="fill:none;stroke:#b6b6b6;stroke-linecap:square;stroke-linejoin:round" />
																						</g>
																					</g>
																				</g>
																			</g>
																			<g
   id="g408"
   transform="translate(270.3613,340.0132)">
																				<path
   id="path410"
   inkscape:connector-curvature="0"
   d="m 67.498,-139.925 c -1.358,15.937 8.709,29.812 22.496,30.989 13.782,1.177 26.057,-10.786 27.419,-26.72 0.001,-0.009 0.002,-0.018 0.003,-0.028 1.357,-15.934 -8.712,-29.808 -22.495,-30.986 -13.785,-1.179 -26.062,10.785 -27.421,26.721 0.002,0.009 0.001,0.018 -0.002,0.024"
   style="fill:#ffffff" />
																			</g>
																			<g
   id="g412"
   transform="translate(270.3613,340.0132)">
																				
																					<path
   id="path414"
   inkscape:connector-curvature="0"
   d="m 67.498,-139.925 c -1.358,15.937 8.709,29.812 22.496,30.989 13.782,1.177 26.057,-10.786 27.419,-26.72 0.001,-0.009 0.002,-0.018 0.003,-0.028 1.357,-15.934 -8.712,-29.808 -22.495,-30.986 -13.785,-1.179 -26.062,10.785 -27.421,26.721 0.002,0.009 0.001,0.018 -0.002,0.024 z"
   style="fill:none;stroke:#b6b6b6;stroke-linecap:square;stroke-linejoin:round" />
																			</g>
																			<g
   id="g416"
   transform="translate(288.3994,348.9155)">
																				<path
   id="path418"
   inkscape:connector-curvature="0"
   d="m 71.77,-160.426 c 8.985,0.763 15.547,9.76 14.666,20.098 -0.385,4.542 -2.137,8.58 -4.75,11.622 -0.312,-0.114 -0.646,-0.193 -1.001,-0.224 -2.024,-0.172 -3.784,1.244 -3.945,3.148 -0.032,0.357 -0.013,0.696 0.067,1.03 -2.491,1.341 -5.304,2.008 -8.217,1.762 -8.981,-0.765 -15.562,-9.762 -14.684,-20.102 0.232,-2.771 0.983,-5.364 2.125,-7.651 0.966,1.675 2.771,2.873 4.917,3.055 3.39,0.29 6.354,-2.081 6.627,-5.299 0.219,-2.567 -1.354,-4.881 -3.713,-5.864 2.416,-1.234 5.116,-1.813 7.908,-1.575"
   style="fill:#292929" />
																			</g>
																			<g
   id="g420"
   transform="translate(288.3994,348.9155)">
																				
																					<path
   id="path422"
   inkscape:connector-curvature="0"
   d="m 71.77,-160.426 c 8.985,0.763 15.547,9.76 14.666,20.098 -0.385,4.542 -2.137,8.58 -4.75,11.622 -0.312,-0.114 -0.646,-0.193 -1.001,-0.224 -2.024,-0.172 -3.784,1.244 -3.945,3.148 -0.032,0.357 -0.013,0.696 0.067,1.03 -2.491,1.341 -5.304,2.008 -8.217,1.762 -8.981,-0.765 -15.562,-9.762 -14.684,-20.102 0.232,-2.771 0.983,-5.364 2.125,-7.651 0.966,1.675 2.771,2.873 4.917,3.055 3.39,0.29 6.354,-2.081 6.627,-5.299 0.219,-2.567 -1.354,-4.881 -3.713,-5.864 2.416,-1.234 5.116,-1.813 7.908,-1.575 z"
   style="fill:none;stroke:#292a2a;stroke-width:4;stroke-linecap:square;stroke-linejoin:round" />
																			</g>
																		</g>
																	</g>
																</g>
															</g>
														</g>
</svg>